{"glyphs":{"\u0000":{"ha":0,"x_min":0,"x_max":0,"o":""},"\r":{"ha":276,"x_min":0,"x_max":0,"o":""}," ":{"ha":276,"x_min":0,"x_max":0,"o":""},"c":{"ha":465,"x_min":-3,"x_max":494,"o":"m 485 436 q 492 428 489 433 q 492 417 494 422 q 485 404 490 413 q 476 391 481 397 q 468 378 472 385 q 460 364 464 371 q 449 351 456 357 q 442 343 443 346 q 428 321 436 331 q 410 300 419 311 q 388 275 399 288 q 365 250 376 263 q 348 235 357 242 q 329 222 339 229 q 261 194 296 203 q 231 189 246 192 q 201 183 217 186 q 195 183 199 183 q 189 183 192 182 q 160 190 175 189 q 131 193 146 190 q 71 221 100 199 q 61 232 67 224 q 51 244 56 240 q 23 288 33 264 q 7 336 13 311 q -1 391 1 364 q 4 446 -3 418 q 18 494 11 471 q 39 539 25 518 q 45 548 42 543 q 53 557 49 553 q 63 570 58 564 q 75 583 68 576 q 99 601 88 596 q 151 626 125 615 q 206 643 178 636 q 219 646 214 646 q 269 645 244 647 q 317 633 293 643 q 333 625 325 629 q 350 615 342 621 q 372 574 372 601 q 370 549 372 561 q 358 526 368 538 q 332 513 347 513 l 296 513 l 288 514 l 268 514 q 256 515 261 515 q 243 518 250 515 q 235 539 228 524 q 240 558 238 549 q 243 578 243 567 q 242 587 243 582 q 236 594 242 592 q 215 592 228 599 q 192 573 203 583 q 175 547 182 563 q 163 527 169 536 q 154 507 157 518 q 149 492 151 500 q 144 476 147 483 q 135 442 138 460 q 131 406 133 424 q 128 362 128 383 q 136 319 129 340 q 141 309 139 314 q 146 299 143 304 q 154 281 150 290 q 164 264 158 272 q 169 258 167 261 q 174 251 171 254 q 187 239 181 244 q 200 228 193 233 q 246 218 219 214 l 263 222 q 294 236 278 229 q 325 253 310 243 q 334 259 331 256 q 342 267 338 263 l 376 301 q 385 310 381 306 q 393 319 389 314 q 413 347 403 333 q 433 374 422 360 q 438 381 436 376 q 443 388 440 385 q 456 408 450 399 q 468 428 461 418 q 485 436 475 439 z "},"e":{"ha":451,"x_min":-7,"x_max":482,"o":"m 472 433 q 478 417 482 431 q 469 393 475 403 q 463 382 467 386 q 457 372 460 378 q 449 357 453 365 q 440 340 444 349 q 437 333 438 338 q 433 326 436 329 q 416 303 424 315 q 397 279 408 290 q 388 269 392 275 q 379 257 383 263 q 342 224 363 236 q 265 192 306 203 q 246 189 251 189 q 208 189 226 189 q 172 190 190 189 q 88 214 126 190 q 47 244 65 228 q 14 285 28 261 q 10 296 11 290 q 6 307 8 301 q 4 320 4 314 q 1 332 4 326 q -4 384 -7 358 q 6 435 -1 410 q 13 454 8 444 q 24 474 18 464 q 26 479 25 476 q 29 485 28 482 q 58 529 39 511 q 100 563 76 547 q 125 576 111 571 q 154 586 139 581 q 172 588 160 588 q 197 589 185 589 q 224 589 210 589 l 240 589 q 261 585 251 586 q 282 582 271 583 q 328 544 313 576 q 335 465 347 506 q 328 445 332 454 q 319 425 324 436 q 307 409 315 415 q 292 396 299 403 q 244 372 272 379 q 198 364 221 367 q 151 357 175 361 q 139 356 144 356 q 126 356 133 356 q 125 335 121 343 q 135 306 131 319 q 147 278 139 292 q 161 261 154 267 q 172 251 167 256 q 182 242 176 247 q 201 228 190 233 q 222 219 211 222 q 268 219 242 213 q 306 235 288 225 q 339 257 324 244 q 350 267 346 261 q 360 279 354 272 q 367 289 364 283 q 376 299 371 294 q 400 329 392 310 q 407 340 403 335 q 414 351 411 344 q 421 364 417 358 q 428 376 425 369 q 440 400 435 388 q 451 424 444 413 q 453 426 451 424 q 472 433 461 439 m 125 403 q 132 393 122 393 l 142 393 q 182 417 165 397 q 195 431 189 424 q 204 447 201 438 q 210 474 207 461 q 211 499 214 486 q 213 513 213 504 q 206 535 213 526 q 189 536 199 544 l 186 533 q 165 508 176 519 q 151 478 154 496 q 149 470 150 474 q 144 463 147 467 q 133 433 136 449 q 125 403 129 418 z "},"f":{"ha":342,"x_min":-72,"x_max":369,"o":"m 368 411 q 365 407 367 408 q 363 403 364 406 q 338 364 350 383 q 314 325 325 344 q 311 322 314 325 q 268 278 290 299 q 215 243 246 257 q 176 231 196 236 q 136 228 157 226 q 125 227 131 228 q 113 222 119 226 q 114 185 108 207 q 123 147 119 165 q 131 111 126 129 q 140 70 135 90 q 151 31 144 50 q 163 -7 158 11 q 171 -44 167 -25 q 176 -61 174 -50 q 191 -101 186 -81 q 199 -142 196 -121 q 203 -176 201 -158 q 201 -211 204 -193 q 174 -254 199 -240 q 141 -268 158 -262 q 104 -272 124 -274 q 78 -270 92 -271 q 53 -268 65 -269 q 22 -258 36 -267 q -4 -239 7 -250 q -14 -229 -10 -233 q -22 -218 -18 -225 q -33 -205 -28 -211 q -40 -192 -37 -199 q -48 -170 -44 -181 q -56 -149 -51 -160 q -59 -140 -58 -144 q -62 -131 -60 -135 q -69 -94 -69 -110 q -71 -37 -72 -65 q -67 19 -69 -8 q -64 57 -65 39 q -60 94 -62 75 q -53 126 -57 110 q -47 158 -50 143 q -42 192 -44 175 q -37 225 -39 208 q -35 244 -36 235 q -31 263 -33 253 q -29 270 -31 267 q -28 278 -28 274 q -22 317 -26 297 q -14 356 -17 336 q -10 372 -11 364 q -7 389 -8 381 q -2 410 -4 400 q 4 429 0 419 q 8 444 6 433 q 15 484 11 464 q 22 525 19 504 q 24 542 22 533 q 28 557 25 550 q 36 594 32 576 q 43 632 40 613 q 47 651 44 642 q 53 672 50 661 q 58 699 56 686 q 63 726 60 713 q 96 838 71 786 q 101 846 99 842 q 104 854 103 850 q 131 893 110 875 q 136 899 133 896 q 142 904 139 901 q 181 932 160 924 q 228 943 203 940 q 244 944 236 944 q 260 946 251 944 q 321 933 292 947 q 349 908 336 925 q 356 888 356 897 q 356 836 358 861 q 344 786 354 811 q 329 749 338 767 q 313 711 321 731 q 272 626 293 669 q 251 588 261 607 q 231 549 242 568 q 183 463 206 504 q 179 456 181 457 q 158 426 167 442 q 138 397 149 411 q 113 339 118 372 q 110 312 110 325 q 107 285 110 299 q 126 257 103 261 q 131 256 128 256 q 167 253 150 249 q 200 268 185 258 q 215 278 207 274 q 231 286 222 283 q 242 294 238 289 q 266 317 254 306 q 290 342 278 329 q 299 353 293 344 q 317 378 308 365 q 336 406 326 392 q 340 413 339 408 q 344 419 342 417 q 350 428 347 425 q 363 432 354 433 q 369 421 369 429 q 369 416 369 418 q 368 411 368 414 m 185 682 q 179 663 182 672 q 174 644 176 654 q 167 613 171 629 q 160 582 164 597 q 156 550 156 567 q 150 518 156 533 q 147 510 147 514 q 146 503 147 507 q 144 461 142 488 q 153 472 150 468 q 160 481 157 476 q 166 491 163 486 q 172 503 169 496 q 182 519 178 510 q 190 535 186 528 q 238 623 217 578 q 281 713 260 668 q 293 745 288 728 q 307 778 299 763 q 313 791 310 785 q 319 803 315 797 q 325 817 322 810 q 328 833 328 825 q 327 854 328 844 q 328 875 326 864 q 325 892 329 886 q 314 906 321 899 q 283 908 299 919 q 272 902 278 906 q 261 894 267 899 q 236 864 242 883 q 224 831 229 847 q 213 800 218 815 q 208 784 210 792 q 204 768 206 776 q 196 724 200 746 q 185 682 192 703 m 128 6 q 117 50 122 28 q 106 93 113 72 q 101 118 101 106 q 83 176 97 151 q 82 168 82 174 l 74 97 q 70 77 71 86 q 67 57 69 68 q 65 40 65 49 q 63 22 64 31 q 60 1 61 11 q 60 -19 58 -8 q 60 -39 61 -29 q 61 -58 60 -49 q 61 -83 61 -71 q 64 -106 61 -94 q 66 -126 64 -117 q 69 -146 68 -135 q 103 -219 74 -186 q 133 -236 115 -233 q 163 -232 156 -237 q 174 -207 169 -226 q 175 -200 174 -203 q 169 -150 178 -172 q 160 -115 165 -132 q 153 -81 156 -99 l 153 -76 q 142 -42 146 -60 q 132 -8 139 -25 q 128 6 129 0 z "},"g":{"ha":486,"x_min":-96,"x_max":518,"o":"m 507 429 q 510 410 518 421 q 503 399 507 404 q 496 386 499 393 q 473 356 485 371 q 450 326 461 342 q 423 291 438 307 q 393 258 408 275 q 361 196 367 231 q 349 153 356 174 q 336 110 343 132 q 329 83 333 96 q 321 57 325 69 q 313 32 317 44 q 303 8 308 19 q 289 -26 296 -12 q 283 -39 286 -33 q 276 -51 279 -44 q 272 -57 274 -54 q 269 -62 271 -60 q 249 -96 261 -81 q 225 -126 238 -111 q 203 -149 214 -137 q 178 -167 192 -160 q 168 -174 172 -169 q 158 -182 164 -179 q 125 -197 142 -189 q 89 -208 108 -204 q -19 -206 36 -221 q -72 -169 -51 -197 q -82 -157 -76 -165 q -90 -137 -87 -149 q -92 -81 -96 -108 q -71 -29 -87 -54 q -61 -13 -65 -21 q -50 3 -57 -6 q -17 35 -35 22 q 22 60 1 49 q 38 65 26 63 q 74 81 56 74 q 110 96 92 89 q 121 101 118 99 q 139 113 129 108 q 158 122 149 117 q 183 133 171 128 q 207 146 194 139 q 226 175 222 157 q 237 215 232 194 q 244 254 242 235 q 248 281 246 268 q 257 306 250 294 q 263 321 260 310 q 265 339 264 331 q 267 357 265 347 q 266 359 267 358 q 265 363 265 360 q 263 361 264 361 q 260 360 261 361 q 240 331 250 344 q 222 301 229 318 q 221 300 222 301 q 190 270 207 283 q 151 251 174 257 q 108 244 129 244 q 65 247 88 244 q 4 283 26 251 q -12 358 -17 317 q -10 383 -11 371 q -4 406 -8 394 q 0 422 -1 414 q 4 438 1 431 q 6 445 6 442 q 8 451 6 449 q 63 536 26 499 q 133 576 90 565 q 141 578 138 578 q 147 579 144 578 q 178 588 163 585 q 211 589 194 590 l 228 589 q 257 590 243 592 q 286 586 271 589 q 298 585 293 586 q 308 585 303 585 q 311 588 310 588 q 314 592 313 589 q 325 604 318 601 q 343 608 332 607 q 358 610 350 608 q 374 611 367 611 q 426 604 399 611 q 439 588 439 600 q 438 579 439 582 q 433 557 435 568 q 429 535 432 546 q 423 502 426 518 q 417 471 419 486 q 412 440 414 456 q 404 408 410 424 q 403 394 403 404 q 396 351 400 372 q 385 310 392 331 q 383 301 383 306 q 385 292 382 297 q 388 293 386 293 q 390 294 389 293 q 403 310 397 301 q 417 325 410 318 q 431 342 424 333 q 443 361 438 350 q 446 367 444 364 q 450 372 447 369 q 467 395 458 383 q 485 418 476 407 q 489 425 488 424 q 507 429 497 435 m 206 93 q 206 99 207 96 q 206 106 206 101 q 201 104 203 104 q 196 103 199 104 q 154 85 175 94 q 113 68 133 76 q 90 58 101 63 q 68 49 79 54 q 42 36 56 42 q 17 24 29 31 q -17 -3 -3 13 q -44 -37 -32 -19 q -58 -65 -56 -53 q -63 -92 -62 -79 q -64 -118 -64 -104 q -44 -159 -62 -143 q -11 -182 -26 -175 q 1 -182 -6 -185 q 49 -171 28 -182 q 89 -140 71 -160 q 106 -117 99 -129 q 121 -93 114 -104 q 135 -69 128 -82 q 149 -46 142 -57 q 165 -17 157 -32 q 179 14 172 -1 q 192 47 186 31 q 203 82 199 64 q 204 88 203 85 q 206 93 206 90 m 250 406 q 270 440 261 422 q 286 478 279 458 q 292 504 293 492 q 280 541 292 533 q 250 553 268 549 q 197 538 221 558 q 177 519 186 528 q 164 496 168 510 q 160 490 163 493 q 156 485 158 488 q 138 453 146 469 q 125 418 129 438 q 117 389 122 403 q 115 360 113 375 q 115 357 115 358 q 114 354 114 356 q 117 321 110 336 q 119 308 119 313 q 128 293 121 300 q 168 290 149 276 q 184 304 176 297 q 199 318 192 311 q 208 329 204 324 q 214 342 211 335 q 231 374 222 357 q 250 406 239 390 z "},"h":{"ha":565,"x_min":-1,"x_max":596,"o":"m 581 438 q 593 425 596 435 q 589 407 593 415 q 583 396 586 401 q 578 383 581 390 q 569 363 574 372 q 560 342 564 353 q 555 331 557 336 q 550 321 553 326 q 514 250 531 285 q 475 183 497 215 q 451 147 464 164 q 418 114 438 129 q 407 105 413 110 q 396 94 401 100 q 314 60 365 64 q 261 85 281 57 q 245 113 251 99 q 240 146 239 128 q 240 153 240 149 q 239 161 239 157 q 242 210 238 183 q 249 250 244 231 q 261 289 254 269 q 269 312 265 300 q 279 335 274 324 q 295 378 288 357 q 310 421 303 399 q 319 453 315 438 q 328 486 324 469 q 331 508 331 497 q 328 529 331 518 q 311 556 326 543 q 282 560 300 567 q 261 547 268 554 q 244 531 253 539 q 229 513 236 522 q 198 466 211 490 q 174 415 185 442 q 167 400 171 407 q 161 386 164 393 q 149 347 154 367 q 139 307 143 326 q 136 285 136 296 q 136 264 136 275 q 132 246 135 254 q 122 231 129 238 q 92 215 108 217 q 79 214 85 214 q 67 213 74 214 q 33 217 53 210 q 13 244 14 226 q 6 274 10 260 q 4 304 3 289 q 3 329 4 317 q 1 354 3 342 q 1 409 -1 382 q 6 464 3 436 q 8 500 7 482 q 11 536 8 518 q 17 586 14 561 q 26 635 19 611 q 33 671 31 653 q 39 707 36 689 q 42 722 40 714 q 46 736 43 729 q 52 753 50 744 q 57 772 54 763 q 66 808 61 790 q 76 844 71 826 q 83 871 78 856 q 95 905 90 888 q 106 939 100 922 q 110 946 108 944 q 126 974 118 960 q 146 1001 135 988 q 175 1034 158 1019 q 213 1057 192 1049 q 247 1069 229 1064 q 283 1074 264 1075 l 314 1074 q 323 1072 318 1072 q 333 1069 328 1072 q 363 1043 354 1063 q 369 978 376 1014 q 356 919 364 947 q 332 865 347 892 q 329 860 331 863 q 328 856 328 858 q 314 828 322 840 q 297 803 306 815 q 269 763 282 783 q 240 724 256 743 q 226 704 233 714 q 213 685 219 694 q 185 650 197 668 q 161 613 174 632 q 149 586 154 600 q 142 557 143 572 q 138 513 140 535 q 132 468 135 490 q 131 441 131 454 q 129 414 131 428 q 133 397 129 403 q 138 401 138 399 q 147 422 143 413 q 157 443 151 432 q 172 473 164 458 q 188 503 179 488 q 190 508 188 503 q 243 572 215 544 q 267 589 254 583 q 296 597 281 594 q 321 601 308 600 q 346 600 333 601 q 422 574 390 597 q 450 532 442 558 q 451 464 461 497 l 439 431 q 431 405 435 418 q 422 379 426 392 l 418 371 q 405 340 410 356 q 396 307 400 324 q 383 262 389 283 q 372 217 378 240 q 368 191 369 204 q 365 164 367 178 q 375 129 364 146 q 390 129 383 126 q 400 138 396 132 q 453 204 433 168 q 467 226 460 215 q 479 249 474 238 q 497 281 488 265 q 514 315 507 297 q 517 320 515 318 q 519 325 518 322 q 540 372 535 349 q 550 394 544 386 q 560 410 556 403 q 567 428 564 418 q 567 430 567 429 q 568 432 568 431 q 581 438 572 440 m 188 797 q 183 777 185 786 q 179 758 182 768 q 169 719 172 739 q 164 678 167 699 q 167 678 165 679 q 168 679 168 678 q 184 697 176 688 q 199 715 192 706 q 214 735 207 725 q 228 756 221 744 q 242 778 235 767 q 258 800 250 789 q 279 831 269 815 q 300 861 289 846 q 301 863 301 863 q 303 865 301 864 q 312 887 307 876 q 321 908 317 897 q 333 946 328 928 q 343 983 338 964 q 346 999 346 990 q 347 1014 346 1007 q 339 1036 347 1028 q 333 1042 338 1040 q 323 1043 328 1043 q 313 1040 318 1043 q 291 1027 301 1033 q 274 1010 281 1021 l 236 947 q 235 943 235 946 q 222 909 228 926 q 208 875 215 892 q 197 836 201 856 q 188 797 192 817 z "},"i":{"ha":257,"x_min":-11,"x_max":285,"o":"m 276 435 q 285 425 285 435 q 281 407 285 415 q 269 378 275 392 q 257 349 264 364 q 254 343 256 346 q 251 338 253 340 q 227 295 239 317 q 200 254 215 274 q 174 224 189 238 q 139 200 158 210 q 117 188 128 193 q 96 176 107 183 q 65 167 81 169 q 32 169 49 164 q 13 175 21 172 q -10 206 -10 182 q -10 246 -10 225 q -11 286 -11 267 q -10 300 -11 293 q -8 314 -10 307 l 4 460 q 6 475 4 471 q 10 508 8 492 q 11 540 11 524 q 15 560 14 554 q 38 581 19 576 q 71 586 54 585 q 106 583 88 588 q 115 581 110 581 q 125 579 119 581 q 142 554 146 575 q 141 551 142 553 q 140 547 140 550 q 131 485 133 519 q 129 443 131 464 q 124 401 128 422 q 123 392 122 396 q 122 382 124 388 q 122 363 122 372 q 119 344 121 354 l 119 328 q 118 307 119 314 q 116 270 115 288 q 117 233 117 253 q 119 226 117 232 q 126 228 122 228 q 132 231 129 228 q 156 249 144 240 q 175 271 168 257 q 189 291 182 282 q 200 311 196 300 l 208 324 q 224 350 217 336 q 229 360 226 356 q 235 371 232 365 q 243 389 239 381 q 251 406 247 397 q 257 417 254 413 q 263 429 260 422 q 276 435 268 438 m 46 617 q 26 632 31 619 q 25 646 24 640 q 28 675 26 661 q 32 704 29 689 q 46 721 33 717 q 50 722 49 721 q 54 722 51 722 q 94 725 74 724 q 133 722 114 726 q 144 721 136 721 q 161 701 164 718 q 158 693 161 699 q 153 653 153 676 q 153 642 153 647 q 151 631 153 636 q 132 614 147 615 l 103 614 l 94 614 q 91 613 92 614 q 89 613 90 613 l 86 613 q 65 615 71 614 q 46 617 60 615 z "},"j":{"ha":243,"x_min":-322,"x_max":271,"o":"m 260 436 q 271 424 271 433 q 269 417 271 419 q 268 411 268 414 q 265 406 268 408 q 237 358 250 382 q 204 314 224 335 q 180 286 192 300 q 156 257 168 272 q 143 243 149 250 q 131 229 138 236 q 103 192 113 215 q 97 176 99 185 q 96 158 96 167 q 92 126 94 142 q 86 94 89 110 q 78 42 81 68 q 71 1 76 21 q 60 -37 65 -18 q 52 -67 57 -53 q 44 -96 47 -81 q 39 -112 43 -104 q 31 -128 35 -121 q 10 -159 19 -143 q -12 -190 0 -175 q -33 -208 -19 -199 q -46 -217 -40 -212 q -58 -226 -51 -222 q -87 -240 -72 -239 q -115 -248 -101 -244 q -144 -256 -129 -251 q -153 -256 -149 -256 q -160 -256 -157 -257 q -196 -253 -178 -253 q -231 -247 -214 -253 q -297 -210 -272 -239 q -302 -203 -300 -207 q -307 -197 -304 -200 q -318 -155 -314 -176 q -314 -111 -322 -133 q -311 -103 -312 -107 q -308 -96 -310 -100 q -283 -53 -304 -74 q -259 -31 -272 -40 q -233 -10 -246 -21 q -220 0 -226 -4 q -207 10 -214 4 q -192 18 -203 13 q -162 35 -176 25 q -135 57 -149 46 q -106 77 -121 68 q -75 96 -90 86 q -54 114 -64 104 q -37 136 -44 124 q -35 144 -36 140 q -33 151 -33 147 q -29 181 -31 167 q -26 211 -28 196 q -22 245 -24 228 q -17 279 -19 263 l -8 342 q -6 362 -7 353 q -3 382 -4 371 q 1 416 -1 399 q 6 450 3 433 q 6 457 7 453 q 6 464 6 461 q 6 488 6 475 q 10 511 7 500 q 13 533 13 526 q 17 556 14 540 q 31 574 18 568 q 57 581 44 582 q 91 578 74 579 q 125 574 108 578 q 140 558 138 572 q 140 540 142 550 q 137 515 138 525 q 133 489 136 504 q 128 435 131 461 q 122 382 125 410 q 119 353 121 367 q 115 325 118 340 q 113 292 113 308 q 110 260 113 276 q 110 257 110 258 q 111 253 111 256 q 113 253 113 253 q 115 254 114 254 q 117 256 117 254 q 144 287 131 271 q 171 319 157 303 q 192 344 182 332 q 213 371 201 357 q 222 388 218 376 q 235 409 229 399 q 247 431 240 419 q 260 436 251 439 m -74 -62 q -67 -40 -68 -50 q -62 -24 -64 -32 q -58 -8 -61 -17 q -51 27 -54 10 q -43 63 -47 44 q -42 72 -42 67 q -46 82 -42 76 q -58 76 -56 79 q -83 57 -71 69 q -106 40 -94 46 q -137 23 -122 33 q -168 1 -153 13 q -183 -7 -172 -1 q -217 -31 -201 -18 q -249 -58 -233 -43 q -258 -68 -254 -62 q -271 -90 -265 -79 q -283 -111 -276 -100 q -285 -119 -285 -114 q -281 -174 -292 -154 q -246 -215 -269 -194 q -240 -218 -243 -218 q -213 -224 -226 -225 q -186 -222 -200 -224 l -183 -222 q -160 -208 -172 -215 q -139 -190 -147 -201 q -130 -180 -135 -185 q -121 -168 -125 -175 q -104 -142 -112 -156 q -92 -112 -96 -128 q -83 -87 -89 -100 q -74 -62 -78 -75 m 42 619 q 28 627 31 622 q 25 643 25 632 l 25 654 q 28 676 28 664 q 32 700 29 688 q 35 710 32 701 q 64 731 43 731 q 94 729 79 729 q 124 728 108 729 q 143 724 135 728 q 156 703 158 719 q 153 676 154 689 q 150 650 153 664 q 149 640 150 643 q 124 617 146 618 q 106 615 115 615 q 89 613 97 614 q 65 614 76 611 q 42 619 53 617 z "},"k":{"ha":538,"x_min":-14,"x_max":565,"o":"m 561 432 q 565 417 565 425 q 563 409 564 413 q 561 401 563 406 q 557 388 558 394 q 553 375 556 382 q 550 364 553 369 q 539 336 543 350 q 529 308 535 322 q 518 282 524 294 q 506 256 513 269 q 486 219 497 236 q 464 186 475 203 q 458 178 461 183 q 440 149 451 163 q 417 125 429 136 q 374 96 397 107 q 324 88 351 85 l 313 88 q 279 88 296 85 q 247 96 263 92 q 213 114 229 100 q 188 137 200 125 q 165 164 175 149 q 160 175 161 169 q 149 200 154 188 q 140 225 144 213 q 135 254 138 240 q 129 283 132 268 q 126 297 126 290 q 119 308 125 303 q 115 289 115 303 q 116 256 118 272 q 114 222 114 239 q 100 194 114 206 q 36 176 71 172 q 19 179 28 178 q 4 188 11 181 q -9 203 -4 194 q -12 222 -14 211 l -12 244 q -12 253 -12 249 q -11 261 -11 257 q -8 321 -8 292 q -6 379 -7 350 q -3 402 -4 390 q 0 426 -1 414 q 3 452 3 439 q 7 479 4 465 q 14 533 10 507 q 21 588 18 560 q 27 626 24 607 q 33 664 31 644 q 35 678 33 672 q 37 699 36 689 q 40 718 38 708 q 48 751 44 735 q 53 785 51 768 q 56 796 56 793 q 58 804 57 800 q 60 814 60 808 q 70 855 63 835 q 85 894 78 875 q 90 909 88 901 q 94 924 92 917 q 119 971 101 951 q 158 1007 136 990 q 183 1019 169 1015 q 210 1024 196 1022 q 245 1024 228 1024 q 279 1021 263 1024 q 288 1019 283 1019 q 297 1017 293 1018 q 322 996 315 1010 q 338 954 336 976 q 332 893 338 919 q 319 856 328 872 q 285 797 304 822 q 269 774 276 786 q 253 750 263 761 q 238 734 246 742 q 222 718 229 726 q 215 711 219 715 q 208 703 211 707 q 175 661 193 679 q 149 608 151 640 q 143 549 146 576 q 142 546 143 547 q 142 543 142 544 q 141 533 142 538 q 144 524 140 528 q 154 522 150 519 q 163 528 158 525 q 177 533 169 531 q 193 538 185 535 q 233 524 215 543 q 243 493 246 511 q 232 467 240 478 q 211 450 224 457 q 201 445 206 447 q 192 440 196 443 q 189 418 174 431 q 200 410 197 413 q 210 400 206 404 q 221 390 215 396 q 224 383 224 388 q 228 376 225 379 l 236 347 q 238 336 238 342 q 240 325 239 331 q 246 306 243 311 q 256 271 251 288 q 264 236 261 254 q 265 229 264 231 q 287 183 276 206 q 317 142 297 161 q 340 125 326 132 q 378 133 361 119 q 403 154 388 146 q 421 170 414 161 q 435 190 428 179 q 456 229 446 210 q 478 268 467 249 q 481 278 481 274 q 485 289 482 283 q 492 306 488 300 q 510 338 503 321 q 524 375 518 356 q 530 403 526 389 q 540 429 533 417 q 549 437 543 436 q 561 432 556 438 m 190 825 q 184 797 188 810 q 178 769 181 783 l 169 715 q 183 722 178 718 q 193 731 189 726 l 226 764 q 263 806 246 785 q 289 856 281 828 q 291 861 290 858 q 293 867 292 864 q 306 898 300 882 q 310 931 311 914 q 311 949 308 938 q 304 978 313 963 q 285 991 297 989 q 261 983 272 993 q 249 968 257 979 q 239 951 243 960 q 229 935 235 943 q 222 921 225 928 q 217 906 218 914 q 213 895 215 900 q 208 885 211 890 q 206 878 207 882 q 204 871 204 874 q 194 836 201 851 q 190 825 193 835 m 149 457 q 147 451 147 456 q 176 463 163 456 q 201 478 189 469 q 210 489 207 482 q 206 507 214 501 q 192 504 200 510 q 190 503 190 504 q 189 503 190 503 q 149 457 163 483 z "},"l":{"ha":339,"x_min":-6,"x_max":367,"o":"m 6 236 q 2 260 3 249 q 0 285 1 272 q -3 343 0 314 q -1 403 -6 372 q 0 418 0 410 q 0 433 0 426 q 1 472 -1 453 q 6 511 3 492 q 8 531 8 521 q 10 550 8 540 q 13 581 11 565 q 15 611 14 596 q 17 627 17 619 q 21 643 18 635 q 28 680 24 663 q 36 717 32 697 q 39 729 39 724 q 42 742 39 735 q 55 792 47 767 q 71 840 63 817 q 72 846 71 843 q 75 851 74 849 q 85 876 81 864 q 96 899 90 888 q 121 936 107 918 q 150 969 135 954 q 232 1000 185 1000 q 266 1001 249 1000 q 300 1000 283 1003 q 335 985 322 997 q 357 919 361 958 q 347 881 354 899 q 331 843 340 863 q 326 834 328 839 q 321 824 324 829 q 311 803 315 813 q 300 783 307 794 q 271 725 283 754 q 253 688 264 706 q 231 654 242 671 q 192 594 211 628 q 178 571 185 583 q 164 546 171 558 q 146 513 153 531 q 133 476 139 494 q 127 445 128 461 q 128 413 126 429 q 128 395 128 404 q 126 378 128 386 q 124 340 125 358 q 126 301 124 321 q 131 257 129 279 q 135 211 132 235 q 140 167 138 189 q 147 125 142 146 q 152 109 149 117 q 158 93 156 101 q 170 85 163 86 q 185 88 178 83 q 210 113 199 97 q 221 129 215 121 q 232 146 226 138 q 256 184 243 165 q 276 224 268 203 q 296 272 288 247 q 311 322 304 296 q 314 331 313 326 q 317 339 315 335 q 324 360 322 353 q 333 390 329 375 q 342 421 338 406 q 356 432 344 432 q 365 425 363 432 q 367 414 367 422 q 363 394 364 400 q 356 368 360 381 q 349 343 353 356 q 333 296 342 319 q 317 249 325 272 q 310 232 315 243 q 285 185 297 208 q 258 139 272 163 q 236 106 247 122 q 211 75 225 90 q 181 49 199 58 q 144 36 164 40 q 130 33 138 33 q 115 31 122 32 q 78 32 94 28 q 50 50 60 36 q 31 83 39 65 q 18 119 22 100 q 7 177 11 149 q 6 236 3 206 m 243 928 q 223 895 231 913 q 208 858 215 878 q 203 842 206 850 q 197 826 200 833 q 194 818 196 822 q 192 810 193 814 q 171 735 181 772 q 154 661 161 699 q 149 640 151 647 q 142 609 143 625 q 139 578 142 593 q 138 574 138 575 q 139 569 139 572 q 150 574 144 567 q 158 587 154 581 q 167 600 163 593 q 174 615 171 607 q 183 629 178 622 q 203 662 193 646 q 221 694 213 678 q 242 733 232 714 q 263 771 251 751 q 280 804 272 788 q 297 838 288 821 q 310 865 304 851 q 321 894 315 879 q 317 958 331 925 q 285 969 307 979 q 269 960 276 965 q 256 946 261 954 q 249 938 253 942 q 243 928 246 933 z "},"m":{"ha":686,"x_min":-32,"x_max":715,"o":"m 96 221 q 71 192 92 197 q 35 183 53 185 q -3 192 17 182 q -14 199 -10 193 q -28 228 -32 210 q -23 267 -25 247 q -18 307 -21 288 q -14 338 -15 322 q -10 368 -12 353 q -1 412 -6 390 q 6 456 3 433 q 10 481 8 468 q 13 507 11 494 q 22 530 14 522 q 40 542 29 538 q 72 547 56 546 q 103 544 88 549 q 118 538 111 542 q 132 528 125 533 q 138 506 140 519 q 133 479 135 492 q 128 453 131 467 l 128 442 q 133 448 131 446 q 136 453 135 450 q 149 481 143 467 q 163 508 156 494 q 177 533 169 521 q 192 556 185 544 q 217 576 203 571 q 247 583 231 581 q 264 585 256 585 q 281 585 272 585 q 287 585 283 586 q 293 585 290 585 q 335 551 324 581 q 342 513 342 532 q 340 472 343 493 q 333 435 338 453 q 326 397 329 417 q 324 385 325 390 q 326 374 324 381 q 332 379 329 374 q 339 394 335 386 q 346 410 343 401 q 365 453 354 432 q 386 496 375 474 q 397 524 393 511 q 415 553 404 539 q 435 582 425 567 q 450 595 442 590 q 468 603 458 600 q 486 606 476 606 q 504 608 496 607 q 516 610 511 610 q 526 611 521 610 q 565 603 549 614 q 588 572 581 593 q 592 549 590 561 q 592 526 594 538 q 585 490 589 507 q 576 454 582 472 q 571 435 574 444 q 565 417 568 426 q 561 401 563 408 q 557 386 560 393 q 549 356 553 371 q 543 326 544 342 q 542 303 543 315 q 539 281 540 292 q 536 257 536 269 q 539 233 536 244 q 543 224 542 228 q 554 225 551 224 q 586 249 572 235 q 621 292 606 268 q 650 339 636 315 q 667 374 660 357 q 685 408 675 392 l 689 421 q 692 429 689 424 q 701 434 694 435 q 711 428 708 433 q 713 413 715 419 q 708 399 710 406 q 703 386 706 393 q 690 358 696 372 q 678 332 685 344 q 660 301 669 317 q 639 269 650 285 q 616 242 628 254 q 593 215 604 229 q 589 208 590 210 q 560 190 574 200 q 531 174 546 181 q 500 166 515 167 q 468 165 485 165 q 431 172 446 165 q 411 197 415 179 q 410 207 410 200 q 410 247 410 226 q 411 288 410 268 q 413 303 411 296 q 415 319 414 311 q 416 326 415 322 q 417 333 417 331 q 423 368 418 351 q 433 403 428 385 q 436 412 435 407 q 439 421 438 417 q 451 465 446 443 q 463 507 456 486 q 464 540 467 526 q 460 547 464 544 q 454 546 457 549 q 438 532 446 542 q 417 489 425 510 q 407 469 411 475 q 382 426 392 449 q 361 379 372 403 q 347 350 354 364 q 333 321 340 336 q 319 281 324 301 q 314 238 315 260 l 314 235 q 306 206 314 215 q 276 193 299 197 q 251 191 264 190 q 224 193 238 192 q 206 197 214 193 q 192 208 199 201 q 188 218 188 213 q 186 232 186 224 q 186 260 186 247 q 188 288 186 274 q 190 317 189 303 q 193 347 190 332 q 196 369 194 358 q 199 392 197 381 q 203 410 201 401 q 206 428 204 418 q 208 439 207 433 q 210 451 208 444 q 213 468 213 460 q 217 483 214 476 q 218 518 221 497 q 204 513 210 519 q 192 497 197 504 q 179 479 186 489 q 163 446 168 464 q 150 410 157 428 q 141 387 146 399 q 132 364 136 375 q 118 329 125 346 q 106 293 111 313 q 104 287 106 290 q 104 279 103 283 q 101 250 104 264 q 96 221 99 236 z "},"n":{"ha":488,"x_min":-19,"x_max":519,"o":"m 243 489 q 247 508 246 499 q 250 529 247 518 q 252 559 253 544 q 251 589 251 574 q 246 600 250 594 q 231 591 236 597 q 219 578 225 585 q 213 567 215 572 q 207 556 210 561 q 192 523 200 539 q 176 490 183 507 q 158 449 167 469 q 142 407 149 429 q 134 382 139 394 q 125 358 129 369 q 117 333 119 346 q 111 307 114 319 q 107 287 108 296 q 104 267 106 278 q 65 231 97 235 q 49 228 57 228 q 32 228 40 228 q -8 242 13 228 q -19 260 -19 249 q -19 274 -19 267 q -17 288 -19 281 q -8 340 -11 314 q -1 392 -6 365 q 2 429 1 411 q 10 467 3 447 q 14 496 10 482 q 21 524 18 510 q 36 543 25 536 q 42 546 42 546 q 117 546 79 556 q 133 536 122 544 q 139 522 142 531 q 140 506 139 514 q 138 489 140 497 q 138 468 132 476 q 153 503 144 488 q 171 538 163 519 q 183 561 178 549 q 194 586 188 574 q 213 614 201 601 q 238 638 224 626 q 261 649 249 646 q 288 654 274 653 q 303 654 294 654 q 319 653 311 654 q 344 644 333 650 q 363 622 356 638 q 376 577 372 600 q 375 531 381 554 q 373 515 374 522 q 372 499 372 507 q 368 457 372 478 q 358 417 364 436 q 347 372 351 394 q 339 326 342 350 q 336 308 338 317 q 333 289 335 299 q 329 257 331 274 q 326 225 328 240 q 328 218 326 219 q 338 201 328 206 q 357 204 350 197 q 373 221 365 213 q 388 238 381 229 q 406 263 399 250 q 421 290 414 276 q 427 302 424 297 q 433 313 431 307 q 436 318 436 315 q 455 352 446 335 q 474 388 464 369 q 482 406 478 397 q 490 424 486 415 q 507 433 496 439 q 514 415 519 431 q 510 406 511 410 q 501 387 506 396 q 494 368 497 378 q 491 362 492 365 q 489 356 490 358 q 463 307 475 331 q 436 260 450 283 q 414 225 425 242 q 388 194 403 208 q 376 183 381 189 q 365 171 372 178 q 354 161 360 163 q 322 148 339 154 q 288 142 306 142 l 246 142 q 213 164 221 142 q 202 204 206 183 q 201 246 199 225 q 207 292 204 269 q 213 336 210 314 q 224 388 218 363 q 235 439 229 414 l 243 489 l 243 489 z "},"o":{"ha":372,"x_min":-11,"x_max":401,"o":"m 4 269 q -1 285 1 278 q -7 300 -4 293 q -10 322 -11 313 q -7 361 -8 342 q -3 400 -6 381 q 6 438 0 419 q 24 472 13 456 q 26 477 25 475 q 29 482 28 479 q 46 508 36 497 q 67 529 56 518 q 75 536 71 533 q 83 542 79 539 q 107 549 92 549 q 121 547 117 549 q 139 554 132 547 q 152 566 146 561 q 165 576 158 571 q 192 591 176 588 q 222 592 207 594 q 236 586 228 592 q 279 531 269 564 q 289 489 286 510 q 292 447 292 468 q 288 410 290 428 q 282 372 286 392 q 279 358 281 365 q 275 343 278 350 q 275 335 272 338 q 286 328 281 326 q 303 336 290 331 q 319 344 315 342 q 332 356 326 350 q 344 368 338 361 q 351 376 347 371 q 357 385 354 381 q 366 403 361 394 q 376 419 371 411 q 386 429 378 424 q 397 428 392 432 q 401 418 401 425 l 397 406 q 391 391 394 399 q 383 376 388 383 q 314 306 358 329 q 297 299 310 303 q 281 293 285 294 q 259 287 268 290 q 243 274 250 283 q 236 261 242 269 q 183 219 215 229 q 168 215 174 217 q 156 213 163 214 q 141 211 150 211 q 117 211 132 211 l 100 211 q 55 221 75 210 q 17 250 35 232 q 4 269 8 258 m 157 478 q 150 447 146 464 q 158 406 153 426 q 176 368 164 386 q 196 344 186 356 q 219 326 206 333 q 233 332 231 331 q 239 338 236 333 q 251 361 246 349 q 257 388 256 374 q 258 419 258 403 q 264 451 257 436 l 264 456 q 263 483 263 469 q 260 511 263 497 q 229 560 251 542 q 203 565 217 569 q 185 561 194 563 q 174 549 176 560 q 172 546 175 549 l 185 538 q 188 522 197 532 q 171 500 178 511 q 157 478 164 489 m 115 329 q 122 288 113 306 q 146 254 132 271 q 153 250 147 253 q 186 250 171 240 q 214 281 204 264 q 208 303 224 294 q 174 326 190 314 q 151 357 158 338 q 149 361 151 358 q 140 378 144 369 q 129 394 135 386 q 127 399 128 397 q 124 403 126 400 q 117 365 117 383 q 115 329 118 346 z "},"p":{"ha":615,"x_min":-28,"x_max":644,"o":"m -25 -4 q -25 39 -28 17 q -22 83 -22 61 q -22 126 -22 104 q -21 151 -22 139 q -19 176 -19 164 q -18 200 -18 188 q -18 224 -18 213 q -16 257 -17 240 q -14 292 -15 274 q -12 303 -12 297 q -10 315 -11 308 q -5 357 -7 336 q 0 400 -3 378 l 0 403 q 7 465 0 435 q 17 525 14 494 q 21 571 19 549 q 25 615 22 593 q 31 636 26 631 q 50 644 35 642 q 92 649 71 650 q 133 639 114 649 q 151 610 153 629 l 151 607 q 142 546 144 576 q 133 486 140 515 q 133 481 133 483 q 132 475 132 478 q 130 441 132 458 q 125 407 128 424 q 122 388 122 397 q 121 369 122 379 q 119 353 119 361 q 117 338 118 346 l 117 317 q 126 333 124 324 q 132 351 129 342 q 143 389 138 371 q 156 426 149 407 q 171 458 165 442 q 188 488 176 474 q 200 505 194 496 q 214 521 206 514 q 282 549 239 546 q 350 543 318 553 q 358 542 354 542 q 365 540 363 542 q 403 529 386 538 q 435 508 419 521 q 453 481 449 499 q 466 434 460 457 q 471 388 472 411 q 470 377 469 382 q 471 365 471 372 q 465 331 471 346 q 461 315 461 324 q 456 297 458 306 q 450 279 454 289 q 449 276 449 278 q 449 271 450 274 q 461 276 458 274 q 467 279 464 278 q 474 282 471 281 q 500 292 489 285 q 522 311 511 300 l 526 315 q 579 365 558 336 q 619 425 600 393 q 621 428 619 425 q 635 433 628 438 q 642 421 644 431 q 636 403 639 407 q 616 371 625 388 q 594 339 607 354 l 582 326 l 558 303 q 547 294 556 300 q 520 276 533 285 q 493 258 507 267 q 469 247 482 251 q 444 239 457 243 q 388 208 411 231 q 349 182 369 192 q 304 165 328 172 q 273 156 289 160 q 242 150 257 153 q 183 156 211 146 q 172 163 176 158 q 161 171 167 167 q 153 182 156 175 q 151 212 147 193 q 163 240 154 231 q 203 258 176 258 q 222 260 213 260 q 242 261 231 261 q 253 262 249 263 q 265 260 258 261 q 276 259 271 260 q 285 258 281 258 q 319 282 307 260 q 333 317 328 299 q 342 354 339 335 q 345 389 346 371 q 342 425 344 407 q 331 471 340 446 q 294 511 321 497 q 251 511 271 525 q 215 480 231 497 q 192 439 200 463 q 185 420 189 429 q 176 400 181 411 q 169 378 174 389 q 163 357 165 368 q 158 341 160 349 q 153 325 156 333 q 151 317 151 321 q 150 310 150 314 q 149 303 149 307 q 147 297 149 300 q 140 274 142 286 q 138 250 139 261 q 133 231 135 240 q 129 213 132 222 q 121 167 121 189 q 119 153 121 160 q 118 140 118 147 q 115 109 115 125 q 111 78 114 93 q 108 37 110 57 q 106 -4 107 17 q 104 -26 104 -15 q 103 -47 104 -36 q 107 -118 100 -83 q 106 -142 108 -131 q 94 -165 104 -154 q 35 -183 68 -193 q 18 -177 26 -181 q 0 -169 10 -174 q -8 -162 -7 -167 q -14 -153 -11 -157 q -17 -143 -17 -149 q -22 -110 -19 -126 q -24 -78 -24 -94 q -22 -41 -22 -58 q -25 -4 -22 -24 m 256 207 q 279 228 265 213 q 244 235 261 232 q 211 235 228 238 q 190 228 204 233 q 179 214 183 224 q 179 193 172 204 q 200 185 186 185 q 204 185 203 185 q 208 186 206 186 q 233 194 221 189 q 256 207 244 200 z "},"q":{"ha":540,"x_min":-21,"x_max":568,"o":"m 563 432 q 567 421 568 426 q 557 401 561 407 q 504 322 536 363 q 477 290 492 306 q 447 260 463 275 q 434 249 440 254 q 421 242 428 244 q 418 240 419 240 q 415 239 417 240 q 400 192 385 222 q 413 168 407 179 q 425 146 418 157 q 431 130 428 138 q 438 114 435 122 q 445 94 440 103 q 456 75 450 85 q 482 11 471 46 q 499 -56 492 -22 q 513 -122 506 -89 q 517 -168 517 -146 q 517 -208 518 -187 q 517 -247 517 -228 q 513 -274 517 -261 q 503 -299 508 -286 q 454 -329 489 -325 q 421 -333 438 -332 q 388 -332 404 -333 q 319 -312 349 -329 q 307 -304 313 -308 q 297 -293 301 -300 q 289 -283 294 -289 q 268 -253 275 -269 q 256 -219 261 -237 q 240 -138 244 -179 q 239 -57 236 -97 q 244 18 242 -19 q 249 92 246 56 q 252 117 250 104 q 257 140 254 129 q 258 147 257 143 q 258 153 258 150 q 262 194 258 174 q 267 235 265 215 q 271 269 269 253 q 275 303 272 286 q 274 308 275 306 q 267 303 269 308 q 242 260 256 279 q 211 221 228 240 q 172 190 193 203 q 122 176 147 175 q 108 175 113 176 q 72 177 89 174 q 38 185 56 181 q 21 194 28 188 q -8 239 0 214 q -12 346 -21 293 q -8 374 -10 360 q -4 403 -7 388 q 3 428 0 415 q 10 454 6 442 q 19 481 14 468 q 33 504 25 493 q 56 535 44 518 q 63 544 60 539 q 69 551 65 549 q 110 576 89 565 q 156 589 131 586 q 178 590 171 589 q 213 592 196 593 q 247 588 229 590 q 270 579 260 585 q 288 561 281 574 q 293 556 290 558 q 303 553 296 553 q 323 574 310 569 q 351 581 336 579 q 369 581 360 582 q 386 581 378 581 q 415 569 401 581 q 428 544 431 561 q 425 518 426 531 q 422 493 424 506 q 422 483 422 488 q 421 474 421 478 q 419 433 422 453 q 414 394 417 414 q 408 352 410 374 q 403 310 406 331 q 401 296 401 303 q 399 282 400 289 l 399 267 q 410 267 406 264 q 419 272 415 269 q 445 294 432 283 q 469 318 458 304 q 536 421 506 364 q 539 426 538 424 q 542 431 540 428 q 563 432 551 440 m 275 397 q 278 408 276 403 q 282 418 279 413 q 290 467 292 440 q 289 494 293 482 q 276 519 285 507 q 275 524 275 522 q 274 526 275 525 q 253 549 265 542 q 225 558 240 556 q 210 557 215 561 q 186 544 197 551 q 168 525 175 538 q 153 499 161 513 q 140 472 144 486 q 117 388 122 429 q 110 331 111 360 q 117 275 110 303 q 122 251 119 263 q 129 229 125 240 q 144 218 131 218 q 188 238 171 221 q 201 253 194 244 q 214 271 208 261 q 234 305 224 289 q 253 339 244 321 q 265 368 260 354 q 275 397 271 382 m 396 138 q 383 149 393 147 q 378 119 381 133 q 374 89 375 104 q 372 46 372 67 q 369 3 371 25 q 368 -72 367 -35 q 369 -147 369 -110 q 378 -199 369 -174 q 385 -219 383 -210 q 436 -289 397 -264 q 475 -281 458 -303 q 478 -274 476 -278 q 481 -268 479 -271 q 490 -231 488 -249 q 493 -193 492 -212 q 492 -190 493 -192 q 492 -187 492 -189 q 491 -174 492 -181 q 490 -160 490 -167 q 489 -151 489 -156 q 488 -144 489 -147 q 483 -114 485 -129 q 478 -83 481 -99 q 472 -49 475 -67 q 461 -17 468 -32 q 440 36 450 11 q 418 89 429 61 q 406 112 413 100 q 396 138 400 124 z "},"r":{"ha":410,"x_min":0,"x_max":439,"o":"m 426 432 q 436 417 439 429 q 433 408 436 414 q 412 363 422 385 q 390 319 401 342 q 386 312 388 315 q 383 304 385 308 q 377 290 381 297 q 369 276 374 283 q 360 258 364 267 q 350 239 356 249 q 331 203 340 221 q 306 171 321 186 q 292 155 299 164 q 278 138 285 146 q 253 112 267 124 q 224 92 240 100 q 154 81 193 76 q 138 83 143 83 q 101 92 117 83 q 72 117 85 101 q 67 132 67 125 q 58 189 61 158 q 60 205 58 196 q 63 222 61 214 q 73 273 67 247 q 86 324 79 299 q 95 353 90 339 q 106 382 100 367 l 114 411 q 115 417 115 414 q 118 422 115 419 q 142 481 133 451 q 144 485 143 483 q 147 490 146 488 q 153 501 151 496 q 155 509 154 506 q 153 517 156 513 q 147 520 150 521 q 139 519 143 519 q 117 515 128 517 q 94 513 106 514 q 74 499 79 510 q 61 477 67 488 q 49 456 56 467 q 40 440 46 451 q 29 417 36 429 q 22 408 26 410 q 6 407 15 401 q 0 419 0 411 l 4 432 q 15 451 10 442 q 24 468 19 460 q 32 481 28 475 q 39 494 36 488 q 43 521 46 507 q 22 544 28 529 q 11 576 15 560 q 9 596 8 586 q 11 615 10 606 q 12 625 11 621 q 13 633 13 629 q 14 665 11 649 q 21 696 17 681 q 26 718 24 707 q 36 739 29 729 q 49 756 43 747 q 63 774 56 765 q 93 786 72 786 q 120 785 107 785 q 147 782 133 785 q 169 769 161 779 q 174 744 176 758 q 171 727 172 736 q 165 711 169 718 q 163 703 163 707 q 161 696 163 699 q 143 649 154 669 l 122 603 l 118 590 q 118 574 115 579 q 132 564 121 569 q 174 561 154 556 q 217 567 196 568 q 258 563 238 565 q 272 560 265 561 q 285 558 278 560 q 297 536 308 556 q 278 490 283 514 q 271 474 276 485 q 251 424 261 449 q 232 375 242 400 q 229 369 231 372 q 228 364 228 367 q 221 332 225 347 q 211 301 217 317 q 201 263 206 282 q 192 224 197 243 q 185 181 185 200 q 194 132 183 157 q 224 124 203 110 q 248 141 236 132 q 267 165 260 150 q 290 194 275 181 q 311 225 304 210 q 326 253 318 240 q 340 282 335 267 q 358 313 351 296 q 374 344 365 329 q 389 378 382 361 q 403 413 396 394 q 408 425 406 421 q 426 432 414 436 m 104 638 q 109 645 107 643 q 113 650 111 647 q 131 697 124 674 q 146 743 139 719 q 147 747 147 744 q 144 750 144 750 l 142 750 q 138 745 139 747 q 133 740 136 743 q 130 732 131 736 q 126 724 129 728 q 111 683 115 704 q 104 638 107 663 z "},"s":{"ha":363,"x_min":-29,"x_max":390,"o":"m 376 417 q 387 411 383 417 q 388 399 390 406 q 376 379 383 392 q 364 360 369 367 q 340 328 349 344 q 308 288 331 313 q 295 268 300 278 q 293 247 290 258 q 294 217 297 232 q 288 188 292 203 q 274 165 283 174 q 254 150 264 157 q 232 140 244 143 q 193 131 213 135 q 154 131 174 128 q 139 131 147 132 q 124 131 131 131 q 107 131 115 129 q 90 135 99 132 q 68 154 72 140 q 76 182 64 168 q 100 203 86 193 q 122 215 111 210 q 144 228 133 221 q 158 235 151 231 q 169 247 165 240 q 147 280 161 267 q 114 304 132 293 q 81 326 97 315 q 51 351 65 336 q 39 363 43 360 q 18 389 28 372 q 6 408 13 399 q -6 426 0 417 q -12 436 -8 432 q -17 446 -15 440 l -29 500 l -29 514 q -25 533 -26 524 q -21 553 -24 543 q 26 625 -11 599 q 110 660 63 651 q 167 666 139 667 q 225 661 196 665 q 240 660 232 661 q 254 658 247 660 q 299 638 281 656 q 311 575 322 614 q 303 560 308 568 q 294 546 299 553 q 285 536 293 542 q 183 519 238 510 q 176 522 178 522 q 168 533 168 528 q 176 543 168 540 q 182 545 179 544 q 188 547 185 546 q 214 576 210 553 q 216 593 215 585 q 215 610 217 601 q 210 623 215 618 q 197 632 204 628 q 167 632 182 640 q 131 599 142 618 q 120 579 125 589 q 108 558 115 569 q 106 549 106 553 q 103 532 104 540 q 101 514 103 524 q 103 469 99 490 q 119 428 108 447 q 138 397 128 413 q 164 371 149 382 q 194 344 179 357 q 228 321 210 332 q 242 311 235 317 q 256 301 249 306 q 282 303 269 292 q 300 324 292 310 q 318 346 308 339 q 326 356 322 350 q 333 367 331 363 q 346 387 340 375 q 358 408 351 399 q 376 417 365 418 m 136 163 q 171 207 160 178 q 154 204 161 207 q 132 190 147 201 q 118 181 125 185 q 108 168 111 176 q 122 158 115 158 q 136 163 129 158 z "},"t":{"ha":336,"x_min":-156,"x_max":810,"o":"m 136 464 q 135 442 135 453 q 132 421 135 432 q 122 351 125 386 q 121 282 119 317 q 120 263 121 272 q 118 243 119 253 q 116 214 115 228 q 118 185 117 200 q 121 143 119 164 q 125 101 122 122 q 131 76 125 88 q 147 63 136 65 q 167 69 157 61 q 186 88 178 78 q 201 110 194 97 q 212 126 207 118 q 221 142 217 133 q 231 157 225 146 q 244 183 238 171 q 256 210 251 196 q 267 240 260 225 q 281 268 275 254 q 285 281 283 275 q 290 292 288 286 q 296 305 293 299 q 301 318 299 311 q 314 349 307 333 q 325 379 321 364 q 328 388 328 383 q 332 397 329 393 q 335 408 333 403 q 338 418 336 413 q 354 429 342 431 q 365 418 365 429 q 362 401 363 410 q 358 383 361 392 q 341 342 351 363 q 324 300 331 321 q 310 267 317 283 q 297 232 304 250 q 296 228 296 231 q 294 224 296 226 q 284 196 288 204 q 274 176 281 188 q 251 135 263 156 q 228 94 239 115 q 207 64 219 78 q 181 38 194 50 q 165 24 174 31 q 149 11 157 18 q 117 -6 133 0 q 81 -12 100 -12 q 65 -12 72 -12 q 49 -11 57 -11 q 19 0 33 -11 q 8 17 13 4 q 1 57 1 38 q 1 69 1 64 q -1 81 1 75 q -7 106 -6 93 q -10 133 -8 119 q -12 185 -12 160 q -14 239 -12 211 q -13 258 -14 249 q -11 276 -12 267 q -11 285 -11 281 q -10 296 -11 290 q -9 310 -10 303 q -7 325 -8 318 l -7 333 q -4 371 -4 353 q -1 408 -4 389 q 3 446 1 428 q 8 483 4 464 q 17 532 14 507 q 25 581 21 557 q 30 619 29 600 q 35 657 31 638 q 32 682 36 668 q -7 688 8 689 q -51 690 -29 688 q -94 697 -72 693 q -115 704 -106 699 q -131 717 -124 710 q -144 732 -140 726 q -153 754 -156 740 q -142 789 -150 774 q -119 815 -135 804 q -92 825 -108 822 q -74 825 -83 825 q -57 824 -65 825 q -34 822 -46 822 q -10 818 -22 821 l -7 818 q 2 810 0 815 q -1 799 4 804 l -17 783 q -26 761 -26 774 q -17 738 -26 749 q -8 728 -12 733 q 3 721 -3 724 q 31 719 17 713 q 49 740 46 725 q 54 765 51 753 q 60 789 57 776 q 65 815 63 803 q 71 842 68 828 q 83 888 78 865 q 94 933 88 910 q 100 951 97 943 q 106 969 103 960 q 136 994 114 990 q 158 1000 147 997 q 181 1001 169 1003 q 203 997 193 1001 q 225 985 214 992 q 232 969 232 981 q 229 958 232 964 q 222 933 226 946 q 215 908 218 921 q 210 883 213 896 q 204 856 207 869 q 198 834 201 844 q 192 813 194 824 q 186 788 188 800 q 182 764 185 776 q 181 751 181 760 q 194 739 183 739 q 212 739 203 739 q 229 742 221 739 q 252 747 240 744 q 275 749 264 749 q 296 751 282 749 q 329 759 313 757 q 363 764 346 761 l 408 772 q 435 776 422 775 q 460 781 447 778 q 471 783 465 781 q 546 793 506 793 q 610 795 578 794 q 675 796 643 796 q 706 793 690 796 q 736 786 721 790 q 772 772 758 782 q 795 753 788 765 q 806 726 803 742 q 792 701 810 706 q 763 693 778 696 q 733 696 749 690 q 722 698 728 697 q 710 700 717 699 q 674 729 681 704 q 628 768 664 761 q 597 772 613 771 q 567 768 582 772 q 548 765 557 765 q 529 764 539 765 q 456 756 493 761 q 382 743 418 751 q 356 737 369 740 q 331 731 343 733 q 267 717 299 725 q 203 703 235 710 q 199 702 200 703 q 194 701 197 701 q 161 667 165 692 l 153 617 q 151 581 151 599 q 147 546 150 564 l 139 496 q 138 479 138 488 q 136 464 138 471 z "},"u":{"ha":524,"x_min":0,"x_max":551,"o":"m 542 438 q 551 426 551 435 l 551 417 q 543 393 549 404 q 531 371 538 382 q 528 365 529 368 q 526 360 526 363 q 508 318 519 336 q 483 282 497 300 q 456 246 469 263 q 421 217 442 229 q 401 210 411 211 q 381 206 392 208 q 348 203 364 201 q 315 206 332 204 q 296 225 299 208 q 292 240 293 232 q 290 256 292 249 q 287 284 288 271 q 283 311 286 297 q 281 322 283 314 q 277 318 278 319 q 275 315 276 317 l 267 290 q 255 261 263 275 q 239 233 247 247 q 179 189 219 203 q 156 185 168 186 q 133 186 144 183 q 113 189 119 189 q 92 190 101 188 q 72 196 82 193 q 42 218 54 201 q 7 313 13 261 q 4 338 4 325 q 3 364 4 350 q 1 387 3 375 q 0 411 0 399 q 1 428 0 419 q 1 444 1 436 q 4 472 4 458 q 7 500 4 486 l 15 550 q 17 566 17 558 q 19 582 18 574 q 46 615 21 607 q 93 624 68 624 q 115 618 104 622 q 136 608 125 614 q 143 594 143 604 q 144 570 146 582 q 140 546 143 558 q 137 528 138 536 q 133 511 136 519 q 132 501 132 506 q 132 492 132 496 q 133 483 133 488 q 132 475 132 479 q 127 446 129 460 q 128 417 125 432 q 128 408 129 413 q 128 400 128 404 q 132 351 126 376 q 137 324 135 338 q 142 297 139 311 l 142 293 q 150 263 144 278 q 163 235 156 249 q 177 223 168 224 q 194 229 186 222 q 208 239 201 235 q 219 250 214 243 q 227 262 224 256 q 233 275 231 268 q 242 296 238 286 q 249 315 246 306 q 263 368 258 340 l 271 422 q 276 447 274 435 q 276 472 278 460 q 278 479 276 476 q 281 508 281 494 q 281 538 281 522 l 281 540 q 290 565 283 554 q 315 578 296 575 q 338 580 326 581 q 361 579 350 579 q 374 578 368 579 q 386 575 379 576 q 407 551 406 568 q 406 531 407 540 q 403 510 404 521 q 403 494 403 501 q 401 478 403 486 l 401 458 q 402 440 401 449 q 403 422 403 432 q 403 407 403 415 q 404 390 403 399 q 405 367 404 379 q 407 343 406 354 l 407 324 q 409 294 406 308 q 417 265 413 281 q 429 261 421 257 q 438 268 432 263 q 454 288 449 278 q 469 308 460 297 q 480 323 476 315 q 486 338 483 331 q 508 378 496 358 q 525 422 519 399 q 528 431 525 425 q 542 438 532 440 z "},"v":{"ha":447,"x_min":-8,"x_max":475,"o":"m 463 429 q 471 428 467 431 q 475 422 475 426 q 472 407 475 411 q 464 392 469 400 q 456 378 458 385 q 449 368 450 372 q 432 348 446 360 q 411 332 418 336 q 383 317 399 325 q 351 306 367 308 q 327 303 338 303 q 313 292 317 303 q 297 256 306 274 q 285 218 289 238 q 275 196 281 204 l 263 167 q 228 114 253 139 q 174 94 207 92 q 124 119 142 96 q 108 142 115 131 q 93 167 100 154 q 83 187 89 178 q 72 206 78 196 q 67 217 69 213 q 61 229 64 222 q 45 267 54 249 q 31 306 36 286 q 24 326 28 317 q 15 346 19 335 q 11 357 14 349 q 1 413 7 385 q -6 468 -4 440 l -6 515 q -6 527 -6 522 q -8 538 -7 532 l -8 556 q 26 596 -6 590 q 43 600 35 599 q 61 603 51 601 q 117 579 92 607 q 121 565 121 572 q 121 551 122 560 q 119 519 118 536 q 119 486 119 503 q 120 473 118 479 q 124 460 122 467 q 125 449 124 454 q 126 438 126 443 q 129 408 126 422 q 136 379 132 394 q 141 363 139 371 q 146 344 143 354 q 150 331 149 338 q 154 318 151 325 q 157 312 156 315 q 160 306 158 308 q 174 263 164 283 q 192 222 183 243 q 197 214 193 218 q 203 207 200 210 q 208 206 206 206 q 214 204 211 206 q 215 206 214 206 q 215 207 215 206 l 217 208 q 229 238 224 224 q 240 267 235 251 q 247 281 243 274 q 253 294 250 288 q 254 356 268 326 q 241 390 246 372 q 238 428 236 408 l 238 440 q 235 471 233 456 q 238 501 236 486 q 240 515 238 507 q 245 530 243 522 q 250 544 247 538 q 286 599 260 576 q 364 621 319 628 q 378 607 376 619 l 378 588 q 377 576 378 581 q 376 565 376 571 q 367 488 372 526 q 350 411 361 449 q 344 385 347 397 q 335 360 340 372 q 338 342 332 353 q 353 333 344 331 q 367 338 360 336 q 381 344 374 340 q 394 351 386 347 q 406 360 401 356 q 418 372 410 365 q 432 388 426 379 q 444 406 439 397 q 453 421 450 414 q 463 429 457 428 m 293 422 q 300 462 296 442 q 308 501 304 482 q 313 532 313 515 q 315 546 314 539 q 315 560 315 553 q 314 575 318 571 q 308 574 310 575 q 291 559 299 567 q 279 540 283 551 q 261 458 261 497 q 262 449 261 454 q 263 440 263 444 q 264 432 264 436 q 265 422 264 428 l 269 397 q 272 388 271 393 q 281 379 274 383 q 288 401 285 390 q 293 422 290 411 z "},"w":{"ha":678,"x_min":0,"x_max":707,"o":"m 7 310 q 3 327 4 318 q 1 344 1 336 q 0 399 0 372 q 3 454 0 426 q 8 494 6 474 q 13 535 10 515 l 17 564 q 49 601 21 590 q 78 608 64 606 q 108 608 93 611 q 138 590 128 604 q 144 556 149 575 q 143 550 144 551 q 135 510 136 531 q 133 469 133 490 q 133 422 132 446 q 133 372 133 397 q 135 335 133 353 q 140 297 136 317 q 143 285 143 290 q 144 272 143 279 q 151 250 147 261 q 167 231 156 239 q 186 246 179 232 q 228 322 214 282 q 240 356 233 339 q 249 392 246 374 q 254 420 251 407 q 258 449 257 433 q 263 503 263 475 q 267 553 263 528 q 281 576 268 567 q 340 596 304 600 q 372 581 358 593 q 375 577 374 578 q 378 574 376 576 q 390 556 389 561 q 393 535 392 551 q 393 508 393 521 q 392 482 393 496 q 392 463 392 472 q 394 444 392 454 q 397 430 396 438 q 397 414 397 422 q 399 392 397 403 q 403 371 400 382 q 407 346 407 358 q 410 321 407 333 q 415 285 413 303 q 419 251 417 268 q 428 215 422 232 q 438 179 433 197 q 439 175 439 176 q 440 171 439 174 q 451 169 446 164 q 456 174 454 172 q 460 179 457 176 q 473 204 468 192 q 482 231 478 217 q 487 246 485 238 q 492 261 489 254 q 488 318 503 293 q 469 362 475 339 q 460 408 463 385 q 456 454 456 431 q 460 511 456 482 q 464 529 460 521 q 503 592 478 568 q 528 608 513 601 q 549 610 539 614 q 567 594 560 606 q 574 578 572 583 q 578 551 576 564 q 581 525 579 539 q 583 471 585 497 q 582 418 582 444 q 578 385 581 401 q 572 351 576 368 q 570 335 571 343 q 569 318 569 326 q 569 315 568 315 q 571 313 571 314 q 592 317 582 308 q 606 328 597 319 q 640 360 624 343 q 667 397 656 378 q 672 408 669 403 q 676 419 674 414 q 681 425 679 422 q 685 431 682 428 q 695 435 689 438 q 704 426 701 433 q 704 413 707 419 q 692 389 697 401 q 676 365 688 376 q 672 357 674 361 q 667 350 669 353 q 655 330 663 339 q 638 314 647 321 q 624 302 631 307 q 610 290 617 297 q 597 283 604 285 q 583 278 590 281 q 557 260 565 276 q 552 252 554 256 q 549 244 550 249 q 521 175 539 211 q 475 117 503 139 q 422 99 453 99 q 410 99 415 99 q 399 97 404 99 q 369 100 383 96 q 349 114 354 106 q 334 131 342 124 q 322 149 326 139 q 317 157 319 153 q 314 165 315 161 q 301 211 307 189 q 293 258 294 233 q 283 286 293 276 q 272 279 278 288 q 251 244 263 260 q 228 211 240 228 q 167 178 204 176 q 131 178 149 178 q 96 182 114 179 q 49 208 74 186 q 19 256 25 231 q 13 283 17 269 q 7 310 10 296 m 488 400 q 493 382 490 390 q 499 364 496 374 q 508 356 500 356 q 515 375 515 364 q 522 437 518 407 q 522 497 525 467 q 520 526 522 513 q 517 554 518 540 q 514 560 517 557 q 508 557 508 557 q 486 492 488 525 q 485 474 486 483 q 483 457 485 465 q 482 428 482 442 q 488 400 482 414 z "},"x":{"ha":513,"x_min":-71,"x_max":542,"o":"m -60 494 q -54 528 -71 511 q -42 535 -46 533 q 18 535 -10 546 q 31 529 22 532 q 42 523 38 526 q 51 515 46 519 q 72 492 63 504 q 90 469 81 481 q 98 459 94 464 q 106 449 101 454 q 112 440 108 444 q 119 432 115 436 q 134 413 126 422 q 150 393 142 403 q 161 379 156 385 q 182 381 174 367 q 186 385 185 383 q 189 390 188 388 q 206 420 196 407 q 226 447 215 433 q 251 485 240 464 q 258 493 254 489 q 264 503 261 497 q 285 534 275 518 q 304 565 294 550 q 313 577 308 572 q 326 585 318 582 q 346 588 336 588 q 365 583 356 588 q 371 569 374 578 q 361 553 365 561 q 353 539 357 546 q 344 527 349 532 q 336 515 340 522 q 311 476 324 496 q 285 438 299 457 q 253 391 269 414 q 224 342 236 368 q 229 296 211 317 q 249 274 239 285 q 269 251 258 263 q 274 246 272 249 q 295 218 283 231 q 318 192 307 206 q 321 190 319 190 q 324 186 322 189 q 348 173 338 174 q 374 185 358 172 q 399 213 390 199 l 440 271 q 443 274 440 271 q 465 317 454 296 q 488 360 476 338 q 498 385 494 372 q 508 411 501 399 q 517 426 511 421 q 531 431 522 435 q 539 417 542 428 q 538 408 539 411 q 522 370 529 389 q 504 332 514 351 q 481 281 493 307 q 457 242 474 260 q 444 225 450 233 q 433 208 439 217 q 399 169 418 185 q 356 143 379 154 q 311 132 333 133 q 265 131 289 131 q 231 149 247 132 q 203 174 217 161 q 176 201 190 188 q 165 211 171 207 q 151 222 158 215 q 136 210 140 218 l 107 156 q 94 133 100 144 q 81 110 88 121 q 47 94 68 90 q 32 96 38 94 q 21 117 14 99 q 32 138 26 128 q 43 160 38 149 q 63 194 53 178 q 82 228 72 210 q 92 247 88 238 q 100 267 96 257 q 102 283 104 275 q 94 299 100 292 q 80 317 88 308 q 65 336 72 326 q 60 342 63 339 q 56 347 57 344 q 34 378 46 364 q 10 406 22 392 q -8 428 0 417 q -25 451 -17 440 q -32 460 -28 456 q -39 469 -36 465 l -60 494 z "},"y":{"ha":551,"x_min":-7,"x_max":581,"o":"m -3 303 q -4 335 -7 321 l -4 336 q -4 376 -6 356 q 0 415 -3 396 q 2 453 1 435 q 10 490 3 471 q 13 501 13 496 q 14 514 13 507 q 50 557 18 544 q 85 561 68 563 q 119 554 103 560 q 143 515 147 543 q 139 497 140 506 q 136 478 138 488 q 132 455 133 467 q 129 431 131 443 q 126 386 126 408 q 124 342 125 364 q 124 307 124 324 q 131 274 125 290 q 133 260 133 263 q 151 222 135 239 q 183 215 164 207 q 197 224 190 219 q 207 236 203 229 q 217 253 213 244 q 226 269 222 261 q 260 340 244 304 q 265 351 263 346 q 269 364 267 357 q 278 389 274 376 q 288 414 282 401 q 296 449 294 433 q 307 496 296 471 q 315 524 313 510 q 319 553 317 538 q 323 572 322 563 q 326 590 324 581 q 343 614 328 606 q 355 619 349 617 q 368 624 361 622 q 401 623 385 625 q 432 613 417 621 q 438 608 435 610 q 444 603 442 606 q 451 589 451 599 q 451 576 451 582 q 450 565 451 571 q 447 533 447 549 q 444 500 447 517 l 444 488 q 440 449 442 468 q 435 411 438 431 q 433 390 433 400 q 432 368 433 379 q 430 348 431 357 q 428 328 429 339 l 428 297 q 433 298 431 299 q 438 299 436 297 q 448 307 443 303 q 457 317 453 311 l 489 349 q 501 363 497 357 q 518 382 510 372 q 533 401 526 392 q 543 414 539 408 q 551 425 547 419 q 564 435 556 432 q 576 430 571 435 q 578 419 581 425 q 575 414 576 417 q 572 408 574 411 q 548 378 560 393 q 524 349 536 364 q 508 332 517 340 q 493 317 500 324 q 470 292 482 304 q 446 268 458 279 q 422 226 429 253 q 414 171 414 199 q 412 126 414 149 q 407 82 410 104 q 404 63 406 72 q 404 43 403 53 q 401 24 404 35 q 395 -1 399 11 q 389 -25 392 -12 q 388 -36 388 -29 q 381 -69 385 -53 q 375 -101 378 -85 q 369 -116 372 -108 q 363 -131 365 -124 q 349 -153 356 -142 q 336 -176 343 -165 q 297 -219 322 -203 q 284 -229 290 -224 q 271 -240 278 -235 q 222 -260 249 -258 q 192 -264 206 -260 q 162 -267 176 -268 q 132 -268 147 -265 q 42 -225 75 -264 q 32 -210 35 -218 q 26 -194 29 -203 q 20 -168 24 -181 q 15 -140 17 -156 q 22 -99 13 -115 q 41 -63 32 -81 q 60 -29 50 -46 q 69 -17 64 -21 q 125 39 96 13 q 141 53 132 46 q 157 68 150 60 q 188 94 172 82 q 221 118 204 106 q 231 128 226 124 q 243 139 236 133 q 255 151 250 144 q 267 161 260 157 q 284 181 279 169 q 292 206 289 192 q 297 241 294 224 q 300 278 300 258 q 301 299 300 289 q 304 321 303 310 q 307 348 306 335 q 310 375 308 361 q 309 380 310 378 q 308 386 308 382 q 300 375 301 381 q 296 364 299 369 q 294 351 294 357 q 290 338 293 344 q 286 326 290 331 q 273 299 279 313 q 260 271 267 285 q 247 248 253 260 q 233 225 242 236 q 192 188 214 201 q 177 181 185 183 q 163 176 169 179 q 121 169 142 168 q 78 175 100 169 q 64 181 72 175 q 38 201 50 190 q 19 228 26 213 q 13 242 17 235 q 7 257 10 250 q 1 276 4 263 q -1 290 0 283 q -3 303 -1 296 m 282 76 q 285 101 285 89 q 283 128 285 113 q 275 124 278 125 q 269 122 272 124 q 247 106 258 114 q 225 89 236 99 q 206 73 215 82 q 186 56 197 64 q 165 38 175 46 q 142 22 154 29 q 133 16 138 19 q 125 10 129 13 q 106 -11 114 0 q 89 -33 97 -22 q 66 -71 74 -51 q 51 -112 58 -90 q 51 -158 46 -136 q 67 -200 56 -179 q 82 -221 72 -211 q 119 -236 97 -235 q 156 -226 140 -237 q 174 -214 165 -219 q 192 -201 182 -208 q 211 -182 203 -194 l 228 -144 q 235 -128 232 -136 q 243 -112 239 -121 q 251 -94 246 -106 q 263 -50 258 -72 q 272 -4 268 -28 q 275 10 274 3 q 276 26 276 18 q 277 51 275 39 q 282 76 279 64 z "},"z":{"ha":571,"x_min":-3,"x_max":599,"o":"m 10 404 q 1 410 4 406 q 0 419 -3 414 q 3 428 0 422 q 19 451 11 439 q 39 472 28 463 q 49 483 46 479 q 72 506 60 496 q 99 525 85 517 q 108 531 103 528 q 117 538 113 535 q 242 585 172 574 q 285 590 264 589 q 328 589 306 590 q 347 588 338 589 q 365 585 356 586 q 367 584 367 585 q 369 583 368 583 q 375 567 383 578 q 362 544 367 556 q 346 525 357 533 q 322 492 335 507 q 301 457 310 476 l 297 444 q 310 439 306 439 q 334 434 322 436 q 358 429 346 432 q 417 393 396 424 q 426 378 422 386 q 435 364 431 371 q 443 342 442 353 q 447 326 446 335 q 449 310 447 318 q 453 256 450 285 q 464 260 463 258 q 489 288 478 269 q 498 301 493 294 q 508 314 503 307 q 513 319 511 317 q 518 325 515 322 q 544 367 531 346 q 567 411 557 388 q 571 419 569 415 q 574 426 572 422 q 585 436 578 435 q 599 428 596 439 q 596 408 599 414 q 575 361 588 385 q 563 343 568 353 q 551 324 558 333 q 547 317 549 321 q 542 310 544 313 q 518 281 531 294 q 494 251 506 267 q 483 239 486 243 q 458 214 472 224 q 426 165 435 199 q 417 138 424 149 q 413 129 413 133 q 377 78 400 99 q 326 42 354 57 q 311 33 319 36 q 296 24 303 29 q 246 6 275 10 q 213 0 229 3 q 179 -6 196 -3 q 150 -6 164 -8 q 125 -5 138 -6 q 100 -3 113 -4 q 71 8 85 -3 q 64 38 58 21 q 106 86 78 71 q 131 97 118 92 q 156 110 143 103 q 172 115 161 113 q 210 128 192 122 q 249 139 229 133 q 258 142 254 142 q 294 164 282 149 q 310 201 306 179 q 317 242 314 222 q 321 285 321 263 q 319 318 319 301 q 315 351 318 335 q 308 369 314 363 q 293 383 301 376 q 247 399 274 399 l 181 399 q 163 401 174 399 q 153 419 149 406 q 158 434 156 426 q 165 449 160 442 q 173 460 169 454 q 179 471 176 465 q 196 493 188 482 q 213 515 204 504 q 223 529 218 522 q 233 543 228 536 q 235 547 235 544 q 238 551 235 549 q 219 552 226 554 q 206 547 213 550 q 100 493 149 529 q 81 477 89 486 q 64 460 74 468 q 60 455 61 457 q 56 450 58 453 q 38 432 47 442 q 22 411 29 422 q 10 404 18 404 m 242 79 q 252 90 247 85 q 263 101 257 96 q 268 110 265 104 q 256 112 261 113 q 244 108 250 111 q 227 103 236 106 q 208 97 218 100 q 181 88 194 93 q 154 79 168 83 q 144 72 149 76 q 130 63 138 67 q 115 51 122 58 q 106 44 110 49 q 97 36 101 40 q 96 30 94 33 q 101 25 97 26 q 104 24 103 24 q 133 25 119 25 q 160 32 146 25 l 168 36 q 232 71 200 46 q 242 79 236 74 z "},"B":{"ha":685,"x_min":-78,"x_max":631,"o":"m -47 861 q -78 900 -75 867 q -62 953 -78 929 q -52 967 -57 960 q -40 981 -47 974 q -25 992 -33 988 q 19 1012 -3 1004 q 65 1026 42 1019 q 83 1029 75 1029 q 101 1031 92 1029 q 208 1038 157 1039 q 228 1036 218 1036 q 247 1036 238 1036 q 261 1035 254 1035 q 275 1033 268 1035 q 300 1029 288 1031 q 324 1025 313 1028 q 363 1011 344 1019 q 399 993 381 1003 q 430 967 418 982 q 450 935 442 953 q 468 860 468 900 q 456 788 468 822 q 435 750 449 767 q 420 735 428 743 q 404 721 413 728 q 400 715 401 718 q 400 707 399 713 q 414 703 408 704 q 444 694 429 699 q 475 686 460 690 q 504 673 490 682 q 532 656 518 664 q 560 633 547 646 q 583 607 572 621 q 603 573 594 590 q 615 536 611 556 q 618 525 615 533 q 625 499 622 513 q 628 472 628 486 q 627 463 626 467 q 628 453 628 458 q 630 405 631 429 q 624 356 629 381 q 616 320 621 338 q 604 285 611 303 q 597 270 601 278 q 589 256 593 263 q 577 235 583 244 q 564 215 571 225 q 558 205 561 210 q 551 196 554 200 q 508 152 531 172 q 460 115 486 132 l 458 115 q 422 99 439 108 q 386 83 406 89 q 365 76 375 81 q 344 69 356 72 q 305 63 325 64 q 265 63 285 63 q 237 65 250 63 q 208 69 224 67 q 168 113 172 78 q 167 123 167 118 q 165 133 167 128 q 169 172 163 154 q 186 207 175 190 l 190 211 q 224 256 203 238 q 264 294 244 275 q 267 297 265 296 q 269 299 268 297 q 309 324 289 311 q 350 347 329 336 q 377 358 363 354 q 406 368 392 363 l 410 368 q 419 365 415 369 q 421 356 422 361 q 410 338 418 344 q 394 324 401 331 q 375 315 386 318 q 335 294 353 308 q 300 267 318 281 q 296 263 297 265 q 292 258 294 261 q 278 238 285 247 q 265 217 272 228 q 260 203 260 208 q 257 188 257 196 q 256 172 257 181 q 274 133 253 146 q 281 128 276 132 q 322 125 300 114 q 342 135 333 131 q 361 146 351 140 q 383 163 372 154 q 406 179 394 171 q 416 190 411 185 q 425 200 421 194 q 445 225 435 213 q 461 254 456 238 q 482 296 476 274 q 497 339 488 318 q 499 344 499 342 q 500 349 499 346 q 503 407 503 378 q 501 465 503 436 q 495 508 501 488 q 482 549 489 528 q 478 556 482 551 q 463 585 469 565 q 458 591 460 588 q 454 597 457 594 q 433 618 443 608 q 414 639 424 628 q 406 644 411 642 q 372 660 389 654 q 333 664 354 667 l 292 656 q 275 650 279 653 q 239 635 257 640 q 201 624 221 629 q 178 599 179 618 q 175 554 176 576 q 175 510 174 532 q 177 480 178 494 q 178 450 176 465 q 178 438 178 443 q 179 426 178 432 q 183 407 182 417 q 185 388 185 397 q 190 367 185 378 q 194 352 193 360 q 197 338 196 344 q 199 319 199 328 q 203 301 200 311 q 189 268 207 282 q 115 260 154 243 q 105 265 110 263 q 93 269 100 267 q 76 289 81 275 q 65 329 69 308 q 58 371 61 350 q 56 388 57 379 q 56 406 56 397 q 51 444 53 425 q 47 483 50 464 l 47 501 q 49 525 49 513 q 50 549 50 538 q 50 590 50 569 q 53 631 50 610 q 56 663 56 646 q 57 696 56 679 q 58 709 57 703 q 61 722 60 715 l 61 725 q 65 759 61 743 q 71 793 69 775 q 78 848 74 821 q 86 903 82 875 q 90 921 88 910 q 121 953 97 944 q 144 960 132 957 q 167 961 156 963 q 214 932 200 957 q 218 915 218 924 q 217 906 218 908 q 208 868 210 886 q 203 831 206 850 q 198 792 200 811 q 193 753 196 772 q 191 730 192 742 q 190 707 190 718 q 207 692 190 688 q 216 694 211 693 q 224 697 221 694 q 242 706 231 700 q 269 719 260 714 q 287 731 279 725 q 302 746 294 738 q 322 769 310 754 q 333 794 332 781 q 341 841 340 818 q 332 888 342 864 q 331 890 332 889 q 331 893 331 892 q 324 915 331 906 q 311 936 318 925 q 306 944 308 940 q 300 953 303 949 q 231 1003 278 992 q 196 1006 213 1006 q 161 1003 179 1006 q 101 982 131 999 q 76 958 88 974 q 57 928 64 943 q 51 910 54 919 q 49 892 49 901 q 31 868 46 875 q -47 861 -8 851 z "},"C":{"ha":697,"x_min":42,"x_max":671,"o":"m 49 419 q 46 462 47 440 q 42 504 44 483 q 42 515 42 510 q 43 526 42 521 q 48 565 46 546 q 53 604 50 585 q 58 638 56 621 q 63 671 60 654 q 64 677 64 674 q 65 683 64 681 q 78 715 75 699 q 89 749 82 732 q 93 764 90 753 q 97 780 94 772 q 104 796 100 788 q 109 808 107 803 q 114 821 111 814 q 143 879 124 851 q 161 906 151 893 q 181 931 171 918 q 246 992 210 964 q 293 1017 265 1004 q 331 1028 313 1024 q 369 1036 350 1033 q 399 1040 385 1039 q 429 1040 414 1042 q 476 1036 453 1038 q 524 1032 500 1035 q 588 1004 564 1029 q 632 956 611 981 q 649 922 644 940 q 652 912 651 917 q 656 901 653 907 q 663 883 661 892 q 667 863 665 874 q 668 831 667 847 q 671 800 669 815 q 669 779 671 786 q 632 742 665 747 q 608 738 621 739 q 583 736 596 738 q 560 743 569 736 q 544 760 551 750 q 539 779 539 767 q 539 813 539 796 q 538 846 539 829 q 525 907 533 874 q 509 943 518 926 q 489 976 500 960 q 422 1003 463 1011 q 389 992 404 999 q 360 974 374 985 q 338 956 349 964 q 319 938 328 949 q 289 898 304 918 q 263 854 274 878 q 255 839 258 847 q 247 822 251 831 l 243 814 q 226 778 232 797 q 214 742 221 760 q 210 731 213 739 q 203 700 207 715 q 196 669 199 685 q 192 654 193 658 q 183 618 185 636 q 179 582 181 600 q 178 536 179 558 q 174 490 176 514 q 174 465 172 478 q 178 439 175 453 q 185 403 181 421 q 193 365 189 385 q 196 356 193 364 q 206 327 201 342 q 219 300 211 313 q 238 269 228 285 q 260 240 247 254 q 278 226 267 232 q 310 206 296 217 q 326 197 321 196 q 344 197 331 199 q 358 196 354 197 q 364 194 361 194 q 370 193 367 193 q 382 196 374 193 q 397 199 396 199 q 411 207 399 199 q 418 212 414 210 q 426 215 422 214 q 465 244 449 225 q 478 258 472 251 q 492 271 485 264 q 499 281 496 276 q 506 290 503 286 q 509 296 508 293 q 513 301 510 299 q 526 321 521 310 q 535 343 531 332 q 576 388 543 375 q 621 376 603 397 q 625 350 632 363 q 607 312 615 331 q 586 275 599 293 q 570 256 579 264 q 551 240 561 247 q 513 210 531 225 q 463 182 492 192 q 445 178 447 178 q 429 172 443 179 q 419 169 425 169 q 408 167 414 168 q 374 162 386 164 q 342 157 363 160 l 335 157 q 310 159 319 158 q 293 160 301 160 q 275 163 285 161 q 251 169 265 165 q 189 197 224 179 q 160 216 174 206 q 133 236 147 226 q 89 296 104 258 q 75 332 82 314 q 60 369 68 350 q 49 419 50 394 z "},"D":{"ha":754,"x_min":-86,"x_max":714,"o":"m -64 839 q -81 886 -86 857 q 13 1003 -61 968 q 53 1017 32 1011 q 94 1026 74 1022 q 145 1034 119 1032 q 197 1038 171 1036 q 272 1036 235 1038 q 347 1032 310 1035 q 375 1029 361 1031 q 403 1025 389 1028 q 435 1017 419 1021 q 468 1008 451 1013 q 479 1003 474 1006 q 490 999 485 1001 q 520 984 506 992 q 550 969 535 976 q 582 947 571 960 q 590 940 588 942 q 622 913 610 929 q 646 878 635 896 q 654 865 650 871 q 663 853 658 858 q 688 799 682 826 q 693 777 690 788 q 699 756 696 767 q 710 681 710 715 q 710 665 710 672 q 711 649 710 657 q 713 610 714 629 q 710 572 711 592 q 704 526 707 549 q 696 482 701 504 q 671 413 688 447 q 665 397 668 406 q 661 381 663 389 q 659 374 660 378 q 657 367 658 369 q 639 327 649 347 q 614 290 629 307 q 606 280 610 285 q 600 271 603 275 q 586 252 593 261 q 572 233 579 243 l 543 192 q 529 174 536 183 q 514 158 522 165 q 471 125 492 138 q 451 112 461 118 q 431 99 442 106 q 390 76 411 86 q 346 61 369 67 q 340 59 343 60 q 335 57 338 58 q 286 46 311 44 q 280 45 283 46 q 274 44 276 44 q 265 43 271 43 q 214 47 239 44 q 165 63 189 50 q 153 72 158 67 q 142 83 147 78 q 131 103 135 93 q 125 125 128 114 l 125 133 q 135 179 128 157 q 158 221 143 201 q 260 304 200 274 q 277 312 268 308 q 296 318 286 315 q 325 321 313 322 q 336 319 331 318 q 347 319 342 319 l 372 315 q 377 313 375 314 q 381 311 379 313 q 379 292 394 300 q 368 286 374 289 q 356 281 363 283 q 328 262 340 274 q 304 238 315 250 q 297 229 300 233 q 289 219 293 225 q 273 194 279 208 q 260 165 267 181 q 256 151 257 158 q 256 135 256 143 q 257 125 256 128 q 265 112 260 114 q 281 108 269 110 q 300 112 292 108 q 317 121 308 115 q 375 165 347 142 q 425 217 403 188 q 447 243 436 231 q 467 269 457 256 q 488 303 478 286 q 504 338 497 319 q 510 348 507 343 q 515 358 513 353 q 531 390 525 375 q 542 418 538 404 q 553 446 546 432 q 566 481 561 463 q 574 518 571 499 q 583 622 583 567 q 579 721 586 672 q 576 735 578 728 q 572 749 575 742 q 561 775 567 763 q 550 801 556 788 q 547 808 547 804 q 544 815 546 813 q 501 889 531 856 q 483 908 492 899 q 465 928 475 918 q 447 944 456 936 q 428 960 438 953 q 378 983 403 978 q 360 988 368 986 q 343 993 351 990 q 311 1001 328 1000 q 278 999 294 1001 q 236 963 244 994 q 224 916 231 939 q 214 869 218 893 q 197 751 203 810 q 192 707 194 729 q 186 661 189 685 q 184 626 185 643 q 185 590 183 608 q 184 572 185 581 q 182 554 183 564 q 182 471 178 513 q 186 431 185 451 q 188 390 188 410 q 189 366 188 378 q 193 343 190 354 q 186 311 196 326 q 160 290 176 296 q 120 288 139 285 q 85 307 101 292 q 65 340 69 318 q 63 369 64 356 q 58 397 61 383 q 54 434 56 417 q 51 471 53 451 q 50 488 50 479 q 50 504 50 496 q 53 550 53 528 q 53 596 54 572 q 55 641 53 619 q 60 686 57 663 l 68 765 q 69 780 68 772 q 72 794 71 788 l 85 869 q 86 878 86 874 q 88 886 86 882 q 99 926 96 906 q 108 965 101 946 l 108 974 q 94 972 101 976 q 82 959 88 965 q 69 946 76 953 q 66 941 67 943 q 64 936 65 939 q 58 922 61 929 q 50 907 54 914 q 46 897 47 901 q 44 885 44 892 q 8 831 44 847 q 1 828 4 829 q -7 825 -3 826 q -56 831 -33 814 l -64 839 l -64 839 z "},"E":{"ha":776,"x_min":42,"x_max":724,"o":"m 96 239 q 82 263 89 250 q 68 288 75 275 q 56 319 60 303 q 46 353 51 336 q 42 372 43 363 q 43 393 42 382 q 47 428 46 411 q 51 463 49 446 q 60 493 53 478 q 74 524 67 508 q 92 556 82 540 q 127 606 108 582 q 174 647 146 631 q 190 658 182 653 q 204 671 197 664 q 234 688 218 682 q 265 701 250 694 q 274 704 269 703 q 282 707 278 706 q 288 711 285 710 q 293 715 290 713 q 281 721 285 719 q 238 731 260 726 q 196 747 215 736 q 175 760 185 753 q 154 774 165 767 q 129 806 139 783 q 126 812 128 808 q 124 818 125 815 q 109 866 110 842 q 115 914 108 890 q 116 916 115 915 q 117 918 117 917 q 143 956 129 938 q 179 986 157 975 q 209 1001 194 993 q 239 1015 224 1010 q 282 1028 261 1022 q 326 1032 303 1033 q 350 1033 338 1032 q 374 1036 363 1035 q 493 1032 433 1042 q 515 1028 504 1029 q 538 1024 526 1026 q 550 1019 544 1021 q 563 1011 556 1017 q 581 997 572 1004 q 599 981 590 989 q 619 950 613 968 q 631 917 626 933 q 632 881 635 900 q 627 867 629 874 q 619 857 625 861 q 600 843 610 849 q 576 836 590 838 q 555 835 565 836 q 533 833 544 833 q 510 835 522 833 q 488 838 499 836 q 481 840 486 838 q 476 857 467 847 l 485 865 q 504 894 499 876 q 504 928 510 911 q 497 942 501 935 q 490 956 493 949 q 458 986 481 978 q 451 992 454 989 q 443 999 447 996 q 428 1006 436 1003 q 413 1007 421 1008 q 386 1004 399 1006 q 360 1000 374 1003 q 328 990 343 997 q 297 975 313 982 q 290 970 293 974 q 283 964 286 967 l 258 939 q 253 932 256 936 q 249 924 250 928 q 241 902 244 913 q 235 881 238 892 q 239 846 231 863 q 254 817 246 831 q 274 792 263 803 q 314 764 292 771 q 331 758 322 761 q 347 753 339 756 q 376 745 363 747 q 406 742 390 743 q 438 740 422 740 q 469 738 454 739 q 481 736 478 738 q 493 726 489 735 q 490 715 494 719 q 483 712 488 713 q 476 710 479 711 q 454 707 463 707 q 427 703 440 704 q 399 701 414 703 q 392 700 393 701 q 354 685 372 693 q 321 661 336 676 q 305 647 314 653 q 288 633 296 640 q 276 624 283 631 q 232 569 253 597 q 200 506 211 540 q 197 499 197 503 q 194 492 197 494 q 182 463 186 478 q 175 432 178 447 q 172 400 172 417 q 172 367 171 383 q 173 361 172 364 q 174 356 174 358 q 181 329 178 342 q 189 303 185 317 q 204 274 193 286 q 218 253 214 263 q 247 224 228 233 q 264 210 258 215 q 317 185 286 189 q 344 181 331 181 q 401 185 374 178 q 453 210 429 192 q 460 215 457 213 q 468 219 464 217 q 505 242 489 229 q 536 274 521 256 q 544 284 540 279 q 553 296 549 289 q 570 326 561 311 q 585 360 579 342 q 591 382 588 371 q 597 406 594 393 q 625 438 601 429 q 647 445 636 442 q 671 449 658 449 q 692 446 682 449 q 708 433 701 443 q 713 428 711 431 q 718 422 715 425 q 724 404 724 415 q 722 403 724 404 q 719 388 722 399 q 713 364 717 376 q 706 341 710 351 q 700 326 701 331 q 682 294 692 311 q 649 250 669 268 q 642 245 646 247 q 636 240 639 243 q 585 199 614 214 q 526 169 556 185 q 471 155 499 163 q 413 144 443 147 q 369 141 390 142 q 324 142 347 140 q 277 144 300 142 q 231 156 254 147 q 218 157 226 157 q 188 169 203 161 q 155 191 171 181 q 122 213 139 201 q 108 224 115 218 q 96 239 101 231 z "},"F":{"ha":544,"x_min":-39,"x_max":760,"o":"m -31 961 q -36 975 -39 967 q -35 979 -35 978 q -33 982 -35 981 q -18 1004 -26 993 q 1 1024 -10 1015 q 8 1030 4 1026 q 15 1036 13 1033 q 24 1044 19 1040 q 32 1050 28 1047 q 61 1056 42 1058 q 81 1051 67 1054 q 108 1046 94 1049 q 133 1038 121 1043 q 179 1027 157 1031 q 225 1021 201 1024 q 286 1021 257 1017 q 325 1028 306 1024 q 364 1036 344 1033 q 413 1048 389 1040 q 463 1060 438 1056 q 538 1073 500 1067 q 615 1079 576 1079 l 624 1079 q 656 1073 639 1076 q 688 1065 672 1069 q 701 1058 693 1064 q 712 1050 707 1054 q 722 1043 717 1046 q 744 1022 738 1035 q 756 993 751 1008 q 753 976 760 985 q 738 961 746 968 l 692 915 l 688 911 q 667 903 676 901 q 653 917 657 906 q 644 931 651 924 q 561 978 614 969 q 548 980 554 979 q 535 982 542 981 q 519 983 528 983 q 504 983 511 983 q 469 981 486 982 q 436 976 453 979 q 416 972 425 974 q 396 968 407 971 q 351 956 372 961 q 306 943 329 950 q 272 911 279 938 q 269 899 271 904 q 268 888 267 894 q 265 857 268 872 q 261 826 263 842 q 260 808 261 817 q 260 789 260 799 q 259 780 258 785 q 257 771 260 775 q 253 733 251 751 q 256 696 254 715 q 257 689 257 693 q 258 682 257 685 q 278 669 264 669 q 294 672 286 671 q 311 675 303 672 q 352 679 332 679 q 393 676 372 679 q 433 672 413 675 q 475 665 454 668 q 497 657 488 663 q 501 633 514 647 q 488 615 494 624 q 475 596 482 606 q 460 578 468 588 q 443 561 451 569 q 417 556 433 551 l 363 568 q 323 578 343 574 q 281 582 303 582 q 261 579 265 583 q 256 560 257 575 q 252 513 253 536 q 258 467 251 490 q 260 449 260 458 q 260 431 260 440 q 261 383 261 407 q 264 333 261 358 q 268 249 268 292 q 269 242 268 246 q 269 235 269 239 q 276 195 272 215 q 282 154 279 175 q 283 140 283 147 q 283 126 283 133 q 282 115 283 119 q 263 97 278 106 q 238 90 249 89 q 224 92 231 92 q 210 94 217 92 q 181 103 194 96 q 160 129 164 113 l 156 142 q 150 180 153 161 q 144 218 147 199 q 143 226 143 222 q 142 235 143 231 q 138 289 135 261 l 138 331 q 135 354 136 342 q 133 379 135 367 q 131 420 132 400 q 128 461 131 440 q 126 490 125 476 q 125 519 126 504 q 124 535 124 526 q 121 551 125 543 q 114 550 117 550 q 108 547 111 550 q 83 533 96 540 q 60 518 71 525 q 49 517 53 514 q 44 528 42 521 q 53 550 49 539 q 68 568 58 561 q 83 582 75 575 q 99 594 90 589 q 115 613 110 603 q 121 638 119 624 q 124 686 122 661 q 126 736 125 711 q 128 753 126 744 q 129 769 129 761 q 131 788 131 779 q 132 807 132 797 q 133 844 133 826 q 136 882 132 863 q 137 895 138 889 q 136 908 136 901 q 121 924 135 922 q 98 928 110 926 q 75 933 86 931 l 72 933 q 37 942 56 940 q 0 951 18 944 q -8 954 -4 954 q -17 957 -12 954 q -31 961 -25 957 z "},"G":{"ha":736,"x_min":40,"x_max":739,"o":"m 90 703 q 110 747 101 725 q 133 790 119 769 q 165 836 149 814 q 196 882 181 858 q 210 900 203 892 q 225 915 218 908 q 245 935 236 926 q 265 953 254 943 q 336 1003 299 982 q 418 1032 374 1024 q 443 1036 431 1035 q 469 1039 456 1038 q 494 1041 482 1040 q 521 1040 507 1042 q 553 1036 536 1038 q 585 1031 569 1035 q 606 1024 596 1028 q 628 1014 617 1019 q 646 997 640 1007 q 676 942 664 971 q 688 882 689 914 l 688 864 q 667 839 683 843 q 613 832 640 828 q 599 833 604 832 q 570 846 579 836 q 558 871 561 856 q 555 896 556 883 q 551 921 554 908 q 547 942 549 932 q 540 964 544 953 q 527 985 536 975 q 507 1001 518 994 q 483 1003 494 1007 q 455 994 468 999 q 431 978 442 989 q 418 967 425 971 q 404 960 411 964 q 390 949 397 954 q 376 935 382 943 q 368 926 374 928 q 349 908 357 918 q 332 886 340 897 q 322 873 328 879 q 311 860 317 867 q 272 801 289 832 q 242 736 256 769 q 222 688 231 713 q 207 638 214 663 q 201 621 204 629 q 194 603 197 613 q 183 555 188 579 q 171 507 178 531 q 169 485 169 500 l 169 429 q 172 416 171 422 q 174 403 172 410 q 203 308 183 356 q 221 276 210 293 q 231 261 226 269 q 243 246 236 253 q 260 232 249 239 q 274 222 267 226 q 286 208 281 217 q 296 200 293 201 q 316 194 307 197 q 336 189 325 192 q 353 193 343 188 q 388 222 372 203 q 401 241 394 232 q 413 260 407 250 q 425 281 419 271 q 435 303 431 292 q 451 337 443 319 q 467 374 460 354 q 472 389 469 381 q 476 406 474 397 q 482 426 479 417 q 488 447 485 436 q 495 478 490 463 q 503 508 500 493 q 503 521 504 515 q 503 533 503 526 q 485 535 493 538 q 472 526 478 532 q 451 504 461 515 q 439 478 442 493 q 438 474 439 475 q 435 469 436 472 q 421 468 429 460 q 418 471 418 468 q 394 492 407 483 q 369 511 382 501 q 358 519 361 517 q 344 561 335 538 l 357 586 q 362 593 360 590 q 365 600 364 596 q 399 626 375 619 q 409 631 404 629 q 419 633 414 633 q 458 637 439 635 q 496 636 476 639 q 549 630 524 633 q 603 624 575 626 q 625 621 621 622 q 647 622 629 619 q 669 615 658 624 q 695 595 683 606 q 715 569 707 585 q 722 562 718 565 q 728 554 725 558 l 733 549 q 736 533 739 540 q 722 528 733 528 q 718 528 719 528 q 714 529 717 529 q 693 530 703 529 q 672 532 683 531 l 661 532 q 644 530 649 533 q 638 514 640 526 l 638 492 q 639 461 639 476 q 639 431 639 446 q 642 384 640 407 q 649 338 643 361 q 652 319 651 329 q 654 300 653 310 q 665 231 656 267 q 671 207 668 221 q 689 124 675 163 q 692 110 692 115 q 682 96 694 99 q 674 94 679 94 q 630 94 651 94 q 586 94 608 93 q 565 99 571 94 q 556 119 560 104 q 544 170 549 144 q 539 222 540 196 q 538 228 539 225 q 535 238 536 232 q 531 233 532 235 q 528 229 529 232 q 510 201 521 214 q 488 176 499 189 q 454 158 476 164 q 413 149 433 153 q 372 140 393 144 q 360 139 365 139 q 347 139 354 139 q 322 142 335 140 q 297 146 310 144 q 260 151 278 146 q 225 164 243 157 q 198 173 211 168 q 172 186 185 178 q 107 242 135 210 q 64 317 79 274 q 53 356 57 336 q 47 396 50 375 q 42 449 44 424 q 43 503 40 475 q 49 545 46 524 q 57 588 51 567 q 70 637 63 613 q 85 686 78 661 q 90 703 88 697 z "},"H":{"ha":639,"x_min":-75,"x_max":597,"o":"m 35 1040 q 68 1048 51 1046 q 101 1053 85 1050 l 111 1053 q 142 1055 126 1057 q 174 1050 158 1053 q 228 1039 201 1046 q 282 1024 254 1032 q 299 1017 288 1022 q 311 985 317 1007 q 305 963 308 974 q 299 942 301 953 q 291 903 294 922 q 283 865 288 885 l 279 832 q 273 789 276 810 q 269 746 269 768 q 303 711 269 711 q 372 707 339 711 q 390 707 382 706 q 408 708 399 708 q 428 717 422 710 q 438 736 435 725 q 440 756 440 750 q 444 780 443 768 q 446 804 444 792 l 450 908 q 452 922 451 915 q 454 936 453 929 q 455 950 454 943 q 457 964 456 957 l 457 976 q 462 1007 461 992 q 463 1038 463 1022 q 492 1078 463 1068 q 563 1081 525 1092 q 589 1046 589 1075 q 587 1004 589 1025 q 582 964 585 983 q 581 954 581 960 q 576 890 578 922 q 574 825 575 857 q 570 754 571 789 q 567 683 569 719 q 579 635 564 658 q 592 610 588 624 q 578 597 597 593 q 571 600 574 597 q 566 591 567 596 q 565 582 565 586 q 565 519 565 550 q 564 457 564 489 q 565 443 564 447 q 570 405 569 424 q 572 367 571 386 q 574 342 572 354 q 575 317 575 329 q 576 281 575 299 q 581 246 578 264 q 584 220 583 233 q 586 194 585 207 q 588 178 588 186 q 588 163 588 171 q 572 136 589 147 q 528 126 549 125 l 507 126 q 463 161 474 129 q 453 211 456 183 q 450 281 453 247 q 444 350 447 315 l 444 354 q 442 416 446 386 q 442 478 439 446 l 442 479 q 438 531 439 506 q 435 585 438 557 q 434 599 435 592 q 432 614 433 607 q 409 618 421 617 q 386 618 397 619 l 307 614 q 296 613 301 614 q 283 613 290 613 q 265 596 269 611 q 260 564 258 579 q 263 530 263 547 q 263 496 263 513 q 264 460 263 478 q 267 425 265 443 q 268 410 268 418 q 268 394 268 403 q 272 344 269 369 q 278 294 274 319 q 284 257 282 275 q 289 219 286 239 q 285 196 292 203 q 269 183 279 189 q 218 176 246 172 q 171 197 190 181 q 158 218 160 206 q 156 242 157 229 q 153 267 154 254 q 149 295 150 282 q 144 324 147 308 l 144 333 q 140 403 144 367 q 138 444 138 424 q 136 486 138 465 q 134 517 135 501 q 132 549 133 532 q 128 547 129 547 q 125 546 126 547 q 103 515 113 531 q 90 479 93 499 q 89 471 90 474 q 74 465 83 460 l 71 468 q 43 489 57 479 q 15 510 29 499 q -6 542 1 522 q -4 563 -8 549 q 14 599 3 582 q 38 633 25 617 q 47 644 43 642 q 79 669 64 656 q 114 689 94 682 q 138 718 133 694 q 139 730 139 725 q 140 742 139 735 q 151 813 146 778 q 161 883 157 847 q 167 922 164 903 q 175 960 171 940 q 176 971 176 963 q 174 994 178 986 q 156 1008 171 1001 q 103 1004 128 1024 q 82 987 92 996 q 67 964 72 978 q 63 954 64 958 q 61 944 61 950 q 60 921 60 933 q 58 897 60 908 q 65 863 57 878 q 86 833 74 847 q 99 826 92 828 q 114 822 107 824 l 126 818 q 129 815 128 817 q 129 811 131 813 q 124 804 129 807 q 119 803 124 803 q 97 801 108 801 q 72 799 85 800 q 36 800 54 797 q 0 806 18 803 q -32 822 -19 810 q -54 849 -44 833 q -68 925 -75 883 q -22 1011 -62 975 q 5 1028 -10 1022 q 35 1040 19 1035 z "},"I":{"ha":267,"x_min":7,"x_max":349,"o":"m 85 969 q 154 1013 118 993 q 231 1042 190 1032 q 296 1044 264 1050 q 307 1043 301 1043 q 319 1043 313 1043 l 331 1043 q 339 1026 349 1040 q 331 1014 336 1019 q 321 1001 326 1008 q 306 983 314 992 q 290 965 297 975 q 275 952 283 957 q 256 949 267 947 q 233 932 240 949 q 224 890 226 914 q 219 841 221 865 q 214 793 217 817 q 213 779 214 786 q 211 765 211 772 l 207 703 q 206 689 207 696 q 204 675 206 682 q 203 665 204 669 q 203 656 203 660 q 201 629 201 642 q 200 604 200 617 q 199 567 200 589 q 197 522 197 544 q 195 477 196 499 q 196 440 194 456 q 196 339 197 390 q 196 306 196 325 q 196 266 196 286 q 196 226 196 246 q 196 192 196 206 l 196 186 q 206 164 199 169 q 228 157 213 158 q 252 155 240 156 q 276 153 264 154 q 285 150 283 153 q 293 142 290 147 q 286 133 293 136 q 281 131 283 132 q 275 129 278 131 q 223 110 247 122 q 175 83 199 99 q 156 71 165 76 q 140 56 147 65 q 111 43 129 43 l 75 43 l 75 42 q 55 42 64 42 q 35 43 46 42 q 22 46 31 43 q 17 64 7 51 q 23 71 19 67 q 31 78 26 75 q 44 90 38 85 q 57 101 50 94 q 71 135 71 114 l 71 168 q 69 194 69 181 q 68 219 68 207 l 68 375 q 69 392 68 383 q 69 408 69 400 l 69 463 l 69 607 l 69 614 q 74 649 74 631 q 78 685 75 667 q 79 700 79 692 q 79 715 79 708 q 83 765 81 740 q 90 814 85 790 q 94 845 93 829 q 99 876 96 861 q 101 892 100 885 q 104 908 103 900 q 106 918 106 911 q 99 924 106 924 q 85 920 92 922 q 74 913 79 918 q 53 894 63 903 q 32 876 43 885 q 22 869 26 871 q 15 870 19 867 q 13 878 11 874 q 14 886 13 883 q 25 906 19 897 q 38 924 31 915 q 58 942 49 933 q 78 963 67 951 q 81 966 79 965 q 85 969 82 967 z "},"J":{"ha":725,"x_min":42,"x_max":683,"o":"m 64 203 q 58 223 61 214 q 51 243 54 232 q 48 256 49 250 q 46 269 47 263 q 42 334 43 301 q 47 399 42 367 q 55 434 50 417 q 64 469 60 451 q 68 488 67 479 q 71 504 69 496 q 108 550 78 540 q 123 555 115 553 q 139 560 131 557 q 200 543 171 565 q 208 511 215 532 q 203 499 206 504 q 197 488 200 494 q 186 450 188 469 q 183 438 185 443 q 181 425 182 432 q 176 401 178 413 q 174 376 174 389 l 174 363 q 171 330 171 346 q 174 299 171 314 q 176 279 175 289 q 178 260 176 269 q 190 219 182 239 q 210 182 197 200 l 210 181 q 240 154 225 168 q 275 133 256 140 q 317 131 297 126 q 365 153 347 135 q 380 166 372 160 q 394 179 388 172 q 412 199 404 189 q 428 219 419 208 q 438 236 432 225 q 461 278 453 256 q 476 325 469 301 q 478 333 476 331 q 489 365 485 349 q 497 400 493 382 q 503 428 500 414 q 508 458 506 443 q 513 480 511 469 q 515 501 514 490 q 520 536 517 519 q 524 572 524 553 q 525 614 524 593 q 528 657 526 635 l 526 657 l 526 689 l 526 717 q 528 745 528 732 q 525 774 528 758 q 522 797 522 785 q 522 821 522 810 l 514 904 q 511 921 514 913 q 506 936 508 929 q 488 950 500 949 q 454 949 469 953 q 409 930 431 942 q 368 904 388 918 q 347 890 357 897 q 325 876 336 883 q 309 865 317 871 q 294 854 301 860 q 278 842 286 847 q 261 832 269 836 q 225 832 246 821 q 199 886 193 849 q 210 907 199 899 q 247 940 229 924 q 289 968 265 956 q 322 987 306 976 q 354 1006 338 997 q 401 1026 378 1017 q 450 1043 425 1036 q 483 1052 467 1047 q 515 1063 499 1057 q 550 1072 532 1069 q 586 1076 568 1074 q 606 1080 597 1079 q 626 1082 615 1081 q 665 1069 649 1083 q 683 1033 681 1056 l 683 1024 q 678 1006 683 1011 q 661 999 674 1001 q 652 997 657 997 q 644 994 647 997 q 632 967 629 983 l 644 867 q 648 842 647 854 q 651 817 649 829 q 652 808 651 813 q 651 800 653 804 q 651 762 650 781 q 654 724 653 743 q 656 678 656 700 q 654 633 657 656 q 651 587 651 610 q 649 540 651 564 q 642 485 646 513 q 631 429 638 457 q 623 385 626 407 q 615 343 619 364 q 614 335 614 339 q 611 329 614 332 q 597 292 604 310 q 583 256 590 274 q 574 238 579 246 q 564 221 569 229 q 555 208 560 214 q 546 194 550 201 q 524 167 536 179 q 497 144 511 156 q 460 124 479 132 q 421 104 440 115 q 383 95 401 100 q 344 92 364 90 q 333 92 338 92 q 321 90 328 92 q 245 96 282 89 q 172 114 208 103 q 143 125 157 118 q 114 139 129 132 q 83 167 94 150 q 64 203 71 183 z "},"K":{"ha":599,"x_min":-47,"x_max":686,"o":"m 190 871 q 189 828 189 849 q 188 785 189 807 q 188 776 188 781 q 189 767 188 771 q 203 756 192 756 q 235 768 224 756 q 249 784 242 776 q 263 800 256 792 q 266 803 265 801 q 268 806 267 804 q 285 836 276 821 q 301 867 293 851 q 311 882 307 878 q 323 899 318 890 q 332 918 328 907 q 360 956 343 942 q 367 965 364 960 q 375 975 371 969 q 383 984 379 979 q 392 994 388 989 q 471 1032 419 1032 q 482 1032 476 1032 q 494 1031 488 1032 q 528 1015 513 1029 q 526 992 542 1001 q 505 970 514 982 q 489 946 496 958 q 479 931 483 935 q 442 868 454 903 q 418 826 432 844 q 386 789 404 807 l 379 782 q 344 749 364 763 q 304 721 325 735 q 293 714 299 717 q 282 708 288 711 q 276 706 279 707 q 269 703 272 706 q 265 697 265 703 q 269 690 265 694 q 277 688 274 689 q 285 686 281 688 q 300 682 293 685 q 314 676 307 679 q 326 672 321 674 q 339 667 332 669 q 397 639 372 657 q 406 633 399 636 q 460 582 439 614 q 464 576 463 579 q 468 571 465 574 q 474 560 471 565 q 481 549 478 556 l 506 478 q 506 474 506 475 q 507 469 507 472 q 515 420 510 444 q 525 371 521 396 q 532 338 528 354 q 540 306 536 321 q 561 244 547 274 q 581 197 574 217 q 610 156 588 178 q 628 135 619 146 q 649 121 636 124 q 660 114 653 118 q 674 108 668 110 q 678 107 676 107 q 682 104 679 107 q 685 97 686 101 q 681 90 685 92 q 669 88 675 88 q 657 88 664 88 q 626 90 639 88 q 590 100 614 93 q 573 110 585 103 q 556 119 561 117 q 531 133 536 129 q 515 143 526 136 q 496 160 504 150 q 463 203 476 179 q 438 251 449 226 q 426 283 431 267 q 417 317 421 300 q 408 352 413 335 q 400 386 404 369 q 398 401 399 393 q 396 415 397 408 q 390 436 393 426 q 385 456 388 446 q 380 474 382 465 q 375 493 378 483 q 351 546 368 525 q 331 572 340 558 q 311 597 322 585 q 305 604 308 601 q 297 610 301 607 q 273 624 286 617 q 249 639 260 631 q 230 648 239 646 q 210 653 221 650 q 194 651 203 654 q 183 639 183 649 l 183 619 q 185 603 183 611 q 185 588 186 594 q 184 559 183 572 q 188 532 185 546 q 190 513 189 522 q 189 494 190 504 q 189 440 188 467 q 194 385 190 413 q 201 326 200 356 q 206 268 201 297 q 208 225 208 247 q 211 182 208 203 q 197 143 214 160 q 161 125 181 126 l 139 125 q 104 138 119 125 q 82 169 89 150 q 81 175 82 172 q 81 181 81 178 q 77 220 78 200 q 74 260 76 240 q 74 276 74 268 q 71 292 74 283 q 64 358 64 325 q 63 424 64 390 l 63 432 q 60 485 61 458 q 57 538 58 511 q 54 581 56 560 q 56 625 53 603 q 57 635 57 628 q 22 678 56 668 q 11 679 17 679 q -1 681 6 679 q -19 683 -10 682 q -36 685 -28 683 q -45 691 -43 685 q -42 701 -47 697 q -31 708 -37 708 q -11 710 -21 710 q 8 713 -1 711 q 28 717 22 715 q 56 750 51 725 q 56 763 56 757 q 58 776 57 769 q 63 838 61 807 q 67 899 64 868 q 69 942 68 921 q 75 986 71 964 q 76 999 76 993 q 76 1011 76 1004 q 103 1050 79 1039 q 115 1055 110 1053 q 126 1060 121 1057 q 160 1058 142 1065 q 172 1054 167 1056 q 182 1050 176 1053 q 204 1008 208 1038 q 203 999 203 1003 q 201 989 203 994 q 199 944 201 965 q 193 900 196 922 q 192 885 192 893 q 190 871 192 878 z "},"L":{"ha":692,"x_min":-19,"x_max":668,"o":"m 54 263 q 56 285 56 274 q 60 308 57 297 q 63 340 63 324 q 63 372 63 356 q 62 389 63 381 q 63 406 61 397 q 65 456 65 431 q 65 504 65 481 l 65 574 q 64 622 64 597 q 63 669 64 646 q 62 705 63 688 q 61 740 61 722 q 53 842 60 792 q 47 888 50 865 q 46 935 44 911 q 44 958 46 946 q 40 981 43 969 q 39 988 40 985 q 43 1024 36 1011 q 72 1044 50 1036 q 99 1051 86 1049 q 128 1050 113 1053 q 169 1008 165 1047 q 172 989 172 994 q 174 945 174 967 q 178 901 175 924 q 181 847 179 874 q 185 793 182 821 q 188 733 188 763 q 190 674 189 703 q 191 659 190 667 q 193 644 192 651 q 194 590 197 621 q 193 550 193 571 q 193 510 193 529 l 192 510 q 192 455 192 482 q 192 400 193 428 q 190 354 192 376 q 186 308 188 332 q 185 293 185 301 q 183 278 185 285 l 183 229 q 185 214 183 219 q 196 201 188 204 q 220 198 208 199 q 243 201 232 197 q 271 206 257 206 q 300 210 285 207 q 340 216 318 213 q 379 221 363 219 q 415 222 397 222 q 451 221 433 221 q 472 221 463 221 q 493 218 482 221 q 507 216 500 215 q 521 215 514 217 q 551 213 536 214 q 581 211 565 211 q 606 210 593 211 q 629 208 618 210 q 642 208 636 208 q 656 206 649 207 q 665 199 663 204 q 663 188 668 193 q 644 166 651 178 q 625 144 636 154 q 617 138 621 142 q 611 131 614 133 q 561 110 588 110 q 535 113 547 111 q 510 115 522 114 q 491 117 500 117 q 472 118 482 117 q 449 119 461 119 q 426 121 438 119 q 415 122 419 121 q 403 122 410 122 q 386 124 394 124 q 369 124 378 124 l 349 124 q 317 121 338 125 q 290 117 297 117 q 258 114 288 117 q 200 107 228 111 l 192 107 q 157 105 174 108 q 124 99 140 101 q 95 93 108 96 q 67 88 82 90 q 32 75 49 83 q 19 70 25 72 q 8 65 14 68 l -4 61 q -16 67 -12 61 q -15 79 -19 72 q 4 107 -7 93 q 40 160 19 133 q 44 170 43 165 q 47 182 46 175 q 50 223 49 203 q 54 263 51 243 z "},"M":{"ha":785,"x_min":42,"x_max":743,"o":"m 43 582 q 44 611 43 597 q 46 640 44 625 l 46 651 q 50 713 43 683 q 51 729 51 718 q 52 769 50 749 q 57 810 54 790 q 61 837 60 824 q 65 863 63 850 q 69 885 68 874 q 71 908 69 897 q 73 921 72 915 q 76 933 74 926 q 83 958 81 946 q 88 983 85 971 q 93 1004 90 997 q 132 1036 103 1033 q 226 1025 179 1038 q 265 992 253 1017 q 274 972 268 986 q 283 933 279 953 q 289 892 288 913 q 300 824 290 860 q 304 802 303 813 q 307 781 306 792 q 308 761 307 768 q 320 704 315 733 q 336 647 325 675 q 344 607 342 629 q 356 565 349 586 q 375 529 364 544 q 384 536 382 532 q 389 544 386 540 q 397 560 393 553 q 404 576 401 568 q 416 609 411 593 q 428 642 421 625 q 432 651 431 647 q 449 704 439 679 q 469 756 460 729 q 483 792 476 775 q 497 829 490 810 q 503 847 500 838 q 508 864 506 856 q 517 885 513 875 q 526 907 522 896 q 529 913 528 910 q 532 919 531 917 q 542 949 536 935 q 554 978 547 963 q 559 988 557 983 q 563 1000 561 993 q 589 1044 571 1024 q 602 1057 596 1051 q 615 1069 608 1063 q 651 1083 631 1083 q 684 1082 668 1082 q 715 1081 700 1082 q 739 1056 738 1078 q 740 1039 740 1047 q 738 1022 739 1031 q 734 986 735 1004 q 732 949 733 968 l 728 911 q 727 908 728 910 q 728 904 726 907 q 726 868 729 885 q 722 832 724 851 q 721 815 721 824 q 721 799 721 807 l 717 715 q 716 705 717 710 q 715 694 715 700 q 716 651 715 672 q 717 608 717 631 q 717 581 718 594 q 717 556 717 568 q 715 508 717 532 q 717 460 714 483 q 719 388 718 424 q 721 315 721 351 q 722 288 721 301 q 728 263 724 275 q 731 249 731 256 q 731 236 731 243 q 734 192 732 214 q 742 149 736 171 q 742 141 742 144 q 742 135 743 138 q 724 114 742 117 q 706 108 717 114 q 644 107 678 99 q 633 110 639 110 q 613 118 614 113 q 610 136 613 124 q 603 168 604 151 q 601 200 603 185 q 597 241 599 221 q 593 282 596 261 l 593 300 q 592 321 593 311 q 589 340 592 331 q 588 357 588 346 q 585 403 586 381 q 585 450 585 426 q 585 522 585 486 q 586 594 586 558 l 586 607 q 585 640 585 624 q 589 674 586 657 q 590 690 590 682 q 590 706 590 697 q 590 711 590 708 q 588 718 589 714 q 581 713 582 715 q 572 694 576 703 q 567 675 568 686 q 560 657 564 665 q 553 639 557 649 q 537 601 544 619 q 522 563 529 582 q 490 486 511 522 q 475 456 482 471 q 465 425 468 442 q 453 396 461 410 q 435 368 444 382 q 413 351 425 356 q 386 346 400 346 q 344 350 363 346 q 307 376 317 354 q 291 406 300 392 q 276 439 282 421 q 262 474 269 457 q 247 508 254 490 q 244 515 244 511 q 242 522 243 519 q 238 538 239 533 q 227 568 232 553 q 217 599 222 583 q 214 614 214 607 q 201 664 210 639 q 198 678 199 671 q 194 693 197 686 q 190 720 192 707 q 185 747 188 733 q 181 756 185 749 q 174 705 178 729 q 172 657 171 681 q 174 622 174 639 q 171 589 174 606 q 169 575 169 585 l 174 488 q 174 473 174 481 q 175 458 175 465 q 175 419 174 439 q 179 379 176 399 q 183 338 182 358 q 185 297 185 318 q 187 280 185 289 q 190 261 189 271 q 194 244 193 253 q 197 228 194 236 q 199 217 199 222 q 201 206 200 213 q 192 178 204 188 q 163 161 179 165 q 148 158 156 160 q 133 156 140 157 q 117 157 128 154 q 110 160 115 157 q 81 178 90 165 q 68 211 71 192 q 64 249 65 231 q 60 288 63 268 q 58 306 60 300 q 53 335 54 321 q 50 364 51 349 q 47 424 49 394 q 43 485 46 454 q 42 496 42 489 q 42 539 42 518 q 43 582 42 560 z "},"N":{"ha":657,"x_min":42,"x_max":615,"o":"m 124 115 q 105 117 114 114 q 88 122 96 119 q 82 126 85 124 q 76 131 79 128 q 58 169 60 149 q 52 224 56 197 q 50 279 49 251 q 51 308 51 294 q 47 338 51 322 q 47 344 46 340 q 46 391 50 368 q 43 438 42 414 q 43 465 43 451 q 46 494 43 479 l 46 503 q 45 558 43 531 q 44 613 47 585 q 44 658 42 635 l 44 703 q 46 718 46 710 q 47 735 46 726 q 49 757 49 746 q 51 779 50 768 q 53 803 53 792 q 56 826 54 815 q 58 865 58 846 q 63 904 58 885 q 64 915 64 910 q 64 928 64 921 q 65 959 65 943 q 68 992 65 975 q 71 1006 68 999 q 76 1019 74 1013 q 85 1030 79 1026 q 99 1036 92 1033 q 133 1043 117 1042 q 168 1039 150 1044 q 192 1017 186 1032 q 197 993 194 1007 q 199 978 199 986 q 200 963 200 969 q 210 925 201 942 q 219 898 215 911 q 226 869 224 885 q 227 867 226 868 q 228 865 228 867 q 242 824 235 844 q 256 782 249 803 q 259 772 258 776 q 263 761 260 767 q 268 750 265 756 q 274 739 271 744 q 286 715 281 728 q 296 690 292 703 q 301 676 299 683 q 307 663 304 669 q 328 621 318 642 q 350 581 339 600 l 388 514 q 391 508 390 511 q 394 500 392 504 q 403 485 399 493 q 413 469 408 476 q 420 458 415 463 q 428 446 425 453 q 443 424 433 433 q 463 407 453 415 q 469 413 468 408 q 471 419 471 417 q 473 438 472 429 q 474 457 474 447 q 478 531 474 493 q 481 568 481 550 q 483 606 482 586 q 483 615 483 610 q 483 624 482 619 q 486 655 486 639 q 485 686 486 671 q 484 708 483 697 q 485 731 485 719 l 485 746 q 484 765 485 756 q 485 783 483 774 q 485 810 485 797 q 486 835 486 822 q 487 842 488 839 q 486 849 486 846 q 485 863 486 856 q 485 876 485 869 q 484 955 488 917 q 476 1032 481 993 q 476 1049 476 1040 q 476 1065 475 1057 q 489 1089 476 1081 q 582 1086 539 1124 q 603 1043 603 1071 q 603 1026 603 1035 q 606 1008 604 1017 q 607 1000 606 1003 q 609 944 608 972 q 613 889 610 917 q 614 864 613 876 q 614 839 615 851 q 613 810 614 824 q 613 781 613 796 l 613 739 q 610 688 611 713 q 608 638 610 663 q 608 626 608 632 q 607 615 607 621 q 608 574 608 594 q 610 532 608 553 q 610 513 611 522 q 607 493 608 503 q 603 456 604 474 q 600 418 603 438 q 595 381 597 399 q 590 344 593 364 q 590 342 590 343 q 589 338 589 340 q 580 297 582 317 q 576 256 578 276 q 575 247 575 253 q 526 200 567 206 q 512 198 519 199 q 497 199 504 197 q 463 209 478 200 q 438 231 449 218 q 406 263 421 246 q 376 296 392 279 q 369 307 371 300 q 349 336 361 324 q 338 350 343 342 q 321 375 329 363 q 304 399 313 388 q 296 415 297 407 q 275 453 288 436 q 263 478 267 465 q 252 507 260 493 q 236 533 244 521 q 227 547 232 540 q 219 563 222 554 q 213 576 217 569 q 207 589 210 582 l 199 614 q 192 629 196 621 q 186 644 189 638 q 179 653 186 646 q 176 578 171 610 q 175 563 176 567 q 171 527 172 544 q 172 490 169 510 q 175 467 175 479 q 176 443 175 456 q 175 436 176 438 q 173 401 172 418 q 176 368 174 385 q 178 333 178 350 q 179 297 178 315 l 179 285 q 182 256 181 269 q 185 228 183 243 l 189 174 q 178 133 190 153 q 147 117 164 117 q 135 117 140 117 q 124 115 131 117 z "},"O":{"ha":690,"x_min":18,"x_max":649,"o":"m 40 886 q 42 890 42 888 q 67 937 54 914 q 101 979 81 960 q 117 992 108 986 q 135 1001 125 997 q 166 1015 150 1008 q 199 1026 182 1022 q 210 1029 204 1028 q 221 1032 215 1031 q 259 1040 240 1039 q 297 1040 278 1042 l 313 1040 q 344 1038 329 1039 q 372 1038 358 1038 q 385 1035 376 1038 q 417 1028 401 1032 q 450 1019 433 1024 q 505 997 479 1011 q 550 960 531 983 q 565 941 558 950 q 578 921 571 932 q 594 892 586 906 q 610 864 603 878 q 615 849 613 857 q 624 824 619 836 q 631 800 628 813 q 639 755 635 776 q 643 710 643 733 q 644 693 643 701 q 646 676 646 685 q 647 621 649 649 q 643 565 646 593 q 642 559 643 563 q 642 553 642 556 q 640 526 643 539 q 635 499 638 513 q 624 447 629 472 q 614 397 619 422 q 612 390 613 393 q 610 382 611 386 q 596 340 603 361 q 582 297 589 318 q 574 279 579 288 q 564 263 569 271 q 518 203 544 229 q 460 158 492 178 q 435 146 449 150 q 412 136 424 140 q 389 128 400 132 q 363 121 376 122 q 338 117 350 119 q 307 116 322 114 q 276 125 292 118 q 253 135 265 131 q 229 142 242 139 q 196 156 210 146 q 171 178 182 165 q 114 269 133 215 q 111 275 111 275 q 97 315 100 294 q 90 357 93 336 q 81 432 85 394 q 78 507 78 469 q 77 540 78 524 q 75 572 76 557 q 68 597 75 586 q 61 608 65 603 q 54 619 57 614 q 51 628 51 624 q 47 638 50 633 q 43 649 44 643 q 39 660 42 654 q 19 751 18 704 q 21 776 21 764 q 22 801 21 789 q 26 838 22 818 q 34 861 31 849 q 40 886 38 874 m 210 943 q 221 925 203 931 q 236 922 229 922 q 259 919 247 919 q 283 915 271 918 q 297 905 293 913 q 294 888 300 897 q 291 883 292 885 q 288 879 290 882 q 281 868 282 874 q 259 822 269 844 q 244 774 249 800 q 243 770 243 771 q 242 767 243 769 q 226 711 231 743 q 220 667 224 689 q 215 621 217 644 q 217 600 214 610 q 229 583 219 590 q 250 568 239 575 q 276 563 261 561 q 281 564 279 563 q 310 582 299 565 q 347 603 321 597 q 361 604 356 603 q 399 602 381 604 q 436 597 417 600 q 438 597 438 597 q 442 596 439 596 q 448 588 447 593 q 444 578 449 582 l 440 574 q 426 566 432 571 q 414 557 421 561 q 385 538 400 546 q 354 526 371 529 q 309 519 331 522 q 264 517 288 515 q 250 515 257 517 q 236 514 243 514 q 211 493 221 513 q 208 472 208 486 q 211 428 210 450 q 214 385 213 407 q 215 375 214 378 q 224 335 219 356 q 233 296 228 315 q 261 229 242 263 q 276 207 268 217 q 294 188 283 197 q 335 175 311 171 q 350 179 342 178 q 365 183 358 181 q 385 196 376 188 q 404 217 394 207 q 421 240 414 228 q 440 274 432 257 q 456 310 449 292 q 467 338 463 324 q 476 365 471 351 q 483 385 481 375 q 488 406 485 394 q 496 455 492 431 q 503 504 500 479 q 506 522 504 514 q 507 540 507 531 q 510 594 510 568 q 513 649 511 621 l 513 656 q 510 685 511 669 q 510 717 510 701 q 508 738 508 728 q 504 758 507 747 l 500 788 q 492 826 499 807 q 476 863 486 844 q 467 879 472 868 q 457 897 463 890 q 435 926 447 913 q 410 956 422 940 q 372 983 393 974 q 329 1001 351 993 q 317 1003 325 1003 q 276 999 294 1004 q 239 982 257 993 q 222 965 228 975 q 210 943 215 954 z "},"P":{"ha":531,"x_min":-76,"x_max":540,"o":"m 128 1035 q 149 1038 139 1038 q 169 1040 158 1039 q 232 1039 201 1043 q 294 1029 263 1035 q 371 1007 335 1022 q 421 979 396 997 q 436 966 429 972 q 449 951 443 960 q 457 943 453 947 q 465 933 461 939 q 493 896 483 915 q 497 885 496 888 q 518 847 513 867 q 531 807 524 826 q 532 799 532 803 q 533 790 532 794 q 540 764 539 778 q 539 736 540 750 q 537 699 538 717 q 531 664 536 682 q 527 645 528 654 q 524 626 526 636 q 519 607 524 615 q 495 560 508 583 q 464 515 482 536 q 422 476 444 493 q 374 444 399 460 q 260 407 321 415 q 235 400 240 404 q 228 374 231 396 q 227 361 226 367 q 229 349 228 356 q 231 326 229 338 q 232 303 232 314 q 234 251 232 276 q 239 201 236 226 q 242 182 239 193 q 246 151 244 164 q 249 125 247 138 q 239 94 251 106 q 207 81 226 82 l 176 81 q 138 99 153 81 q 124 118 129 108 q 118 140 118 128 l 110 219 q 108 225 108 222 q 102 287 103 257 q 101 349 101 317 q 101 372 101 360 q 99 396 101 385 q 78 419 94 413 q 61 424 69 422 q 46 429 53 426 q 38 433 42 432 q 31 438 35 435 q 32 454 19 446 q 43 458 35 456 q 56 460 50 460 q 69 463 63 461 q 91 471 86 465 q 99 492 96 476 l 99 497 q 99 533 99 515 q 101 567 99 550 q 102 606 103 586 q 107 644 101 625 q 109 666 110 656 q 111 688 108 676 q 116 731 114 710 q 121 772 118 751 q 122 782 122 775 q 132 856 125 819 q 146 929 139 893 q 150 953 149 942 q 153 978 151 965 q 153 986 154 982 q 151 994 151 990 q 99 983 121 996 q 65 949 75 969 q 58 931 60 939 q 57 912 57 921 q 56 893 57 903 q 64 860 53 874 q 67 855 65 857 q 69 850 68 853 q 78 835 72 840 q 93 828 85 831 q 111 819 103 825 q 115 810 115 817 q 107 801 115 804 q 73 797 90 797 q 39 797 56 796 q 22 799 31 799 q 7 801 14 800 q -39 821 -19 801 q -54 838 -47 829 q -67 857 -61 846 q -71 867 -69 863 q -72 876 -72 871 q -68 946 -76 911 q -56 968 -64 957 q -37 986 -47 978 q -17 1001 -28 994 q -10 1006 -11 1004 q 28 1017 10 1010 q 67 1026 47 1024 q 97 1031 82 1029 q 128 1035 113 1032 m 261 853 q 250 776 254 814 q 242 699 246 738 q 239 665 239 682 q 233 631 239 647 l 233 617 q 231 578 232 597 q 229 540 231 560 l 229 474 q 238 456 229 458 q 256 458 247 453 q 265 465 261 461 q 274 471 269 468 q 287 481 281 476 q 300 492 293 486 q 332 522 317 507 q 358 557 347 538 q 361 562 360 560 q 365 567 363 564 q 381 592 375 579 q 393 621 388 606 q 397 637 396 628 q 400 654 397 646 q 406 686 406 669 q 407 718 407 703 q 407 731 407 725 q 406 742 407 736 q 405 757 406 749 q 403 772 404 765 q 397 814 400 793 q 383 854 393 835 q 374 875 379 865 q 363 894 369 885 q 357 901 360 897 q 351 908 354 906 q 334 931 344 921 q 313 950 324 940 q 290 964 303 960 q 285 958 288 961 q 282 953 283 956 q 277 938 279 946 q 275 924 275 931 q 265 869 272 893 l 261 853 z "},"Q":{"ha":686,"x_min":40,"x_max":850,"o":"m 451 1033 q 480 1028 467 1032 q 507 1019 493 1024 q 569 972 547 1004 q 601 922 589 949 q 624 867 614 896 q 631 836 628 851 q 633 806 633 821 q 635 792 633 799 q 638 779 638 786 q 640 722 639 751 q 642 664 642 693 q 638 579 642 621 q 633 542 636 560 q 628 507 631 525 q 624 487 626 496 q 621 468 621 478 q 618 450 621 461 q 610 421 614 435 q 603 393 607 407 q 602 388 603 390 q 601 383 601 386 q 577 319 589 351 q 547 257 565 286 q 534 238 540 247 q 519 222 528 229 q 508 212 513 217 q 497 201 503 207 q 497 164 478 183 q 535 131 515 147 q 574 99 554 114 q 584 90 579 94 q 594 82 589 85 q 615 71 606 75 q 639 64 624 67 q 660 60 650 63 q 681 60 669 58 q 707 65 686 61 q 733 71 728 68 q 789 87 772 86 q 817 86 806 88 q 827 84 826 85 q 838 82 828 83 q 842 78 839 81 q 847 76 844 76 q 849 71 850 75 q 846 64 849 67 q 822 48 833 57 q 796 35 811 39 q 760 23 778 29 q 724 13 743 17 q 676 6 700 8 q 628 7 651 4 q 622 8 626 8 q 565 18 592 8 q 510 36 538 28 q 501 42 504 39 q 493 47 497 44 q 486 53 489 50 q 479 58 483 57 q 460 72 468 64 q 444 88 451 79 q 421 108 433 99 q 397 126 408 117 q 386 134 392 131 q 376 142 381 138 q 343 153 361 154 q 316 151 329 150 q 290 157 303 153 l 282 157 q 257 161 269 160 q 232 167 244 163 q 207 164 219 172 q 188 151 197 157 q 169 138 178 146 q 125 117 151 119 q 106 114 115 114 q 88 114 97 114 q 53 124 72 114 q 49 142 42 131 q 51 145 50 144 q 53 149 51 146 q 88 179 69 165 q 128 204 106 193 q 135 207 129 204 l 139 211 q 135 226 140 218 q 125 238 129 232 q 117 250 121 243 q 104 267 110 258 q 96 288 99 276 q 90 299 93 294 q 85 310 88 304 q 67 349 74 329 q 58 389 61 368 q 53 407 56 399 q 50 424 51 415 q 48 437 49 431 q 47 450 47 443 q 46 478 46 465 q 46 507 46 492 l 46 517 q 42 571 40 544 q 43 624 43 597 q 44 631 43 628 q 44 638 44 635 q 47 656 46 647 q 50 675 49 665 q 53 705 53 690 q 57 735 54 719 q 64 756 58 742 q 82 819 75 785 q 86 833 85 826 q 90 846 88 839 q 94 861 93 857 q 104 885 94 875 q 108 891 107 888 q 113 897 110 894 q 140 939 124 921 q 174 975 156 957 l 179 981 q 226 1009 203 996 q 276 1031 249 1022 q 293 1033 288 1033 q 344 1039 319 1036 q 396 1040 369 1042 q 424 1037 411 1039 q 451 1033 438 1035 m 510 654 q 510 700 513 678 q 506 744 508 722 q 503 767 504 756 q 504 790 501 779 q 501 813 501 801 q 499 836 501 825 q 478 917 492 878 q 467 943 474 931 q 449 967 460 956 q 443 974 446 969 q 438 981 440 978 q 392 1004 422 1001 l 369 1004 q 296 971 325 1001 q 271 947 283 958 q 251 918 258 935 q 248 913 250 915 q 243 908 246 911 q 225 872 229 892 q 219 856 222 861 q 206 811 211 833 q 197 765 200 789 q 194 731 196 747 q 192 696 192 714 q 189 678 192 689 q 181 638 182 658 q 178 596 181 617 q 176 583 176 589 q 175 571 175 578 l 175 554 q 178 531 176 543 q 181 506 179 518 q 185 459 181 482 q 192 413 189 436 q 197 387 194 400 q 201 361 199 374 q 214 315 203 336 q 226 287 221 300 q 239 258 232 274 q 260 240 244 244 q 291 233 275 235 q 322 229 307 232 q 367 231 347 226 q 422 268 403 236 l 439 293 q 447 308 443 300 q 453 324 450 315 q 465 363 457 344 q 492 468 485 413 q 497 522 494 496 q 503 575 500 547 q 506 606 504 590 q 507 636 508 621 q 510 654 507 643 z "},"R":{"ha":568,"x_min":-14,"x_max":697,"o":"m 553 160 q 568 140 560 149 q 586 122 576 131 q 633 96 606 104 q 656 90 644 93 q 679 83 668 86 q 688 80 683 81 q 694 76 692 79 q 697 70 697 74 q 693 64 697 67 q 690 63 692 64 q 686 63 689 63 l 611 58 q 597 60 601 58 q 570 64 583 63 q 546 72 557 65 q 521 77 532 72 q 499 88 510 82 q 488 93 490 90 q 454 122 471 108 q 425 156 438 136 q 400 197 411 175 q 378 240 389 218 q 363 276 368 258 q 350 314 357 294 q 333 351 343 333 q 310 385 322 368 q 300 399 304 392 q 293 414 296 406 q 269 442 286 433 q 246 456 257 450 q 225 460 235 460 q 204 457 215 460 l 188 449 q 184 433 185 440 q 182 418 183 425 q 183 406 182 411 q 185 393 183 400 q 188 372 186 382 q 190 351 189 363 q 193 313 192 332 q 196 274 194 293 q 197 270 196 271 q 197 267 197 269 q 200 228 197 247 q 206 189 203 208 q 207 174 206 179 q 203 156 207 164 q 185 142 200 147 q 126 136 153 131 q 110 140 118 138 q 96 149 103 142 q 81 171 82 157 q 76 196 78 183 q 74 222 75 208 q 72 241 74 232 q 71 260 71 250 q 67 295 68 278 q 64 331 67 313 q 63 344 63 338 q 61 358 63 351 q 60 363 61 361 q 60 368 60 365 q 56 405 57 388 q 53 442 56 422 q 51 449 53 446 q 48 458 51 456 q 39 463 44 460 q 16 468 28 465 q -7 474 4 471 q -14 481 -12 476 q -8 490 -14 489 l 4 494 l 38 503 q 53 518 49 504 q 56 540 56 532 l 56 578 q 55 611 56 594 q 57 644 54 628 q 58 673 58 660 q 56 700 57 686 q 56 719 56 711 q 58 738 56 728 q 63 764 61 751 q 63 789 64 776 q 67 822 63 806 q 69 833 68 828 q 71 844 69 839 q 72 872 71 858 q 76 900 74 885 q 78 919 78 910 q 79 938 78 928 q 81 953 81 944 q 83 968 82 961 q 86 987 85 978 q 89 1006 88 996 q 136 1060 97 1049 q 201 1053 171 1068 q 219 1013 224 1039 q 217 996 217 1001 q 218 992 217 993 q 226 993 221 988 q 231 996 229 994 q 236 999 233 997 q 296 1032 261 1018 q 327 1039 311 1039 q 358 1036 343 1039 q 389 1029 374 1033 q 419 1015 404 1025 l 421 1014 q 452 997 439 1008 q 479 974 465 985 q 481 972 479 974 q 510 928 497 951 q 528 878 524 906 q 529 865 529 871 q 531 853 529 860 q 533 806 536 829 q 525 760 529 783 q 517 725 522 742 q 507 692 513 708 q 484 640 499 664 q 450 594 469 617 q 428 570 439 582 q 401 551 417 558 q 389 542 393 546 q 335 510 368 521 q 326 506 331 507 q 317 501 321 504 q 317 485 306 493 q 329 478 325 479 q 347 467 339 472 q 365 458 356 463 q 396 438 383 450 q 421 411 408 425 q 422 409 422 410 q 424 407 422 408 q 441 375 432 392 q 460 342 450 358 q 470 323 465 332 q 479 306 475 314 q 487 290 483 297 q 493 275 490 282 q 506 246 500 260 q 519 219 513 232 q 535 190 528 204 q 553 160 543 175 m 278 561 q 313 594 297 576 q 344 631 328 613 q 351 638 349 633 q 356 647 353 643 q 362 658 358 653 q 368 669 365 664 q 381 707 376 689 q 393 744 386 725 q 400 776 399 760 q 400 810 401 793 q 401 831 400 824 q 400 867 406 847 q 394 890 397 878 q 388 914 390 903 q 381 932 385 925 q 357 965 369 949 q 339 975 350 975 q 311 964 322 978 q 288 940 299 953 q 276 926 279 932 q 261 901 269 914 q 246 875 253 888 q 243 868 244 872 q 240 860 242 864 q 227 821 233 840 q 215 781 221 801 q 203 733 208 757 q 192 685 199 708 l 192 683 l 183 613 l 182 613 l 182 586 q 184 564 183 575 q 185 542 185 553 l 185 529 q 201 515 186 515 q 229 526 215 517 q 253 544 242 535 q 278 561 265 553 z "},"S":{"ha":621,"x_min":19,"x_max":647,"o":"m 44 642 q 42 651 43 647 q 39 661 40 656 q 36 785 19 724 q 38 792 38 788 q 42 799 39 796 q 44 805 43 801 q 47 811 46 808 q 67 853 54 835 q 93 888 79 871 q 117 914 104 901 q 146 935 131 926 q 160 946 151 938 q 180 960 169 954 q 201 971 190 965 q 228 982 215 976 q 256 994 242 988 q 307 1013 281 1006 q 361 1026 333 1019 l 386 1031 q 406 1035 400 1033 q 435 1038 421 1036 q 464 1040 449 1039 q 478 1042 471 1042 q 492 1042 485 1042 q 519 1039 506 1040 q 546 1035 532 1038 q 564 1032 556 1035 q 581 1026 572 1029 q 586 1024 583 1025 q 592 1022 589 1024 q 617 1011 607 1019 q 635 992 626 1003 q 642 974 639 988 q 647 950 646 963 q 647 925 647 938 q 642 904 644 911 q 630 881 635 893 q 618 858 625 869 q 583 819 604 832 q 553 807 571 810 l 551 807 q 506 802 528 800 q 461 808 483 804 q 452 810 457 810 q 444 814 447 811 q 440 823 439 817 q 446 831 440 829 q 471 841 461 833 q 490 858 481 849 q 501 872 497 865 q 508 886 506 878 q 515 913 511 900 q 522 939 518 925 q 518 963 525 951 q 513 972 515 967 q 508 981 511 976 q 483 1001 497 996 q 450 1001 469 1007 q 408 992 429 997 q 368 976 388 988 q 327 960 346 971 q 290 938 308 949 q 268 922 279 929 q 246 907 257 914 q 240 901 243 904 q 233 894 236 899 q 204 856 218 875 q 179 817 190 838 q 159 751 164 785 q 165 681 154 717 q 170 669 168 675 q 175 660 172 664 q 199 631 186 644 q 229 607 213 618 q 268 581 249 594 q 308 556 288 567 q 348 532 329 544 q 389 508 367 519 q 419 492 404 501 q 449 472 433 482 q 460 465 456 469 q 472 456 465 460 q 512 424 494 442 q 544 386 529 406 q 557 363 553 375 q 564 338 561 351 q 558 279 568 307 q 556 272 557 275 q 554 264 556 268 q 545 235 551 249 q 532 210 539 222 q 475 153 513 172 q 456 141 465 146 q 436 129 446 136 q 399 110 418 117 q 358 101 379 104 q 315 97 335 97 q 254 106 281 96 q 204 136 228 117 q 187 152 196 144 q 168 168 178 160 q 162 176 165 172 q 156 185 158 181 q 147 201 150 193 q 138 218 143 210 q 130 238 132 228 q 126 258 128 247 q 126 279 125 269 q 129 299 126 289 q 135 317 132 308 q 140 333 138 325 q 190 388 156 371 q 213 393 200 393 q 252 391 232 393 q 292 386 272 389 q 303 382 300 383 q 306 374 306 379 q 303 368 307 369 q 287 357 292 365 q 276 340 282 349 q 274 338 276 340 q 258 307 260 324 q 258 272 256 290 q 281 238 263 254 q 309 218 294 226 q 342 206 324 210 q 372 199 357 203 q 401 193 386 196 q 420 192 411 193 q 439 192 429 192 q 456 204 451 192 q 459 220 457 213 q 460 236 461 228 q 456 256 457 246 q 451 275 454 265 q 418 331 443 308 q 385 358 401 344 q 349 382 368 371 q 324 397 336 389 q 301 411 313 404 q 273 428 286 419 q 244 443 260 436 q 235 448 239 446 q 226 453 232 450 q 204 467 215 460 q 181 481 193 474 q 88 567 124 508 l 71 592 q 44 642 53 614 z "},"T":{"ha":253,"x_min":-257,"x_max":554,"o":"m 193 729 q 190 715 192 722 q 189 701 189 708 q 185 634 189 668 q 183 565 181 600 q 184 557 183 561 q 185 550 185 553 q 185 538 185 543 q 186 528 186 533 q 185 486 186 507 q 185 444 185 465 q 185 399 182 421 q 188 340 188 369 q 190 282 189 311 q 192 260 192 271 q 193 239 192 250 q 194 225 193 229 q 199 192 199 208 q 201 157 200 175 q 204 127 203 142 q 210 97 206 113 q 196 61 215 74 q 173 49 185 54 q 147 47 161 44 l 118 51 q 85 72 100 56 q 76 92 79 81 q 72 122 74 107 q 68 153 71 138 q 65 201 65 176 q 64 250 64 226 q 63 266 64 258 q 61 282 61 274 q 58 314 58 297 q 56 347 57 331 q 55 369 54 358 q 56 390 56 379 q 54 436 56 414 q 53 482 53 458 q 53 524 53 503 q 56 565 53 544 q 58 592 58 579 q 57 621 57 606 q 58 667 56 644 q 63 714 60 690 q 64 731 64 719 q 69 792 65 763 q 75 851 72 821 q 76 882 78 867 q 72 913 75 897 q 69 918 71 915 q 67 925 68 921 q 44 925 54 925 q 22 922 33 925 q -13 915 4 918 q -49 907 -31 911 l -153 878 q -168 874 -160 875 q -183 869 -176 872 q -212 860 -199 865 q -237 846 -225 856 q -242 843 -240 843 q -250 844 -247 843 q -253 854 -257 847 q -240 876 -249 865 q -218 902 -229 889 q -196 926 -207 915 q -185 935 -190 932 q -175 942 -181 939 q -136 957 -154 951 q -92 970 -114 964 q -49 982 -71 976 q -20 988 -33 985 q 7 996 -7 992 q 28 1000 18 999 q 50 1004 39 1001 q 68 1007 57 1004 q 102 1016 85 1014 q 138 1019 119 1018 q 155 1022 146 1021 q 172 1026 164 1024 q 210 1032 189 1032 q 251 1034 231 1032 q 293 1039 272 1036 q 308 1040 300 1040 q 324 1040 317 1039 q 351 1041 338 1040 q 378 1042 364 1042 q 386 1042 382 1042 q 396 1043 390 1043 q 444 1041 419 1042 q 494 1039 469 1040 q 516 1038 506 1039 q 538 1035 526 1036 q 547 1032 542 1035 q 553 1026 551 1031 q 551 1017 554 1021 q 549 1015 550 1015 q 546 1011 547 1014 q 528 992 536 1001 q 514 972 521 983 q 440 939 486 932 q 381 947 411 944 q 355 949 368 949 q 328 949 342 949 l 301 949 q 271 949 286 950 q 240 944 256 947 l 228 940 q 211 921 211 936 q 207 903 208 911 q 203 886 206 894 q 197 842 199 864 q 196 797 196 819 q 194 772 194 785 q 194 747 194 760 q 194 738 194 743 q 193 729 194 733 z "},"U":{"ha":685,"x_min":42,"x_max":646,"o":"m 482 374 q 480 394 481 385 q 481 414 479 403 q 482 424 482 419 q 478 435 482 429 q 469 420 471 428 q 464 404 467 413 q 449 369 460 389 q 438 352 443 361 q 428 332 432 343 q 419 317 425 322 q 392 285 406 301 q 365 254 379 269 q 328 226 349 236 q 288 206 308 215 q 265 199 276 200 q 242 197 254 197 q 206 199 224 196 q 171 207 189 203 q 133 231 149 211 q 103 267 114 250 q 88 292 94 279 q 75 319 82 306 q 69 336 71 328 q 64 353 67 344 q 59 369 61 361 q 54 386 57 378 q 51 395 53 390 q 50 406 50 400 q 49 425 49 415 q 46 446 49 435 q 42 515 42 481 q 43 583 42 549 q 46 653 44 619 q 49 724 47 688 q 53 760 49 740 q 58 796 57 778 q 61 832 60 814 q 65 857 64 844 q 68 882 65 869 q 74 916 72 899 q 78 951 76 933 q 81 974 79 963 q 83 997 82 986 q 113 1035 88 1024 q 200 1028 160 1056 q 214 993 218 1015 q 206 949 210 971 q 200 906 203 928 q 197 878 199 892 q 192 853 194 865 q 191 849 192 850 q 190 847 190 849 q 186 802 192 824 q 181 758 181 781 l 176 675 l 176 663 q 172 624 172 643 q 172 586 172 606 q 175 569 172 581 q 175 539 179 554 q 173 514 172 526 q 176 489 174 501 q 179 467 178 478 q 183 444 181 456 q 188 412 186 428 q 194 379 190 396 q 232 285 206 328 q 265 275 244 267 q 308 299 290 283 q 338 339 325 315 q 349 357 340 346 q 354 367 351 363 q 360 378 357 372 q 365 388 363 383 q 371 397 368 393 q 386 421 381 408 q 397 447 392 433 q 422 528 411 488 q 443 610 432 569 q 445 619 444 614 q 447 628 446 624 q 451 644 450 636 q 456 663 453 653 q 464 694 461 676 q 468 723 465 710 q 475 751 471 736 q 486 815 486 779 q 490 865 486 840 q 496 915 493 890 q 500 999 501 957 q 501 1027 499 1014 q 506 1054 503 1040 q 518 1074 508 1068 q 540 1085 529 1081 q 564 1092 550 1090 q 610 1081 588 1096 q 621 1072 618 1075 q 633 1044 636 1063 q 628 992 631 1018 q 625 940 626 967 q 624 928 625 933 q 622 917 624 924 q 619 874 619 894 q 618 831 618 853 q 619 792 619 811 q 615 751 618 772 q 611 706 613 728 q 610 660 610 683 q 610 567 610 613 q 611 475 611 521 l 611 435 q 611 414 611 424 q 614 393 611 404 q 614 382 617 386 q 615 347 613 364 q 618 313 617 329 q 621 297 619 304 q 625 281 622 289 q 632 255 628 268 q 639 228 636 242 q 642 213 642 217 q 624 179 646 188 q 601 170 613 174 q 578 168 589 167 q 542 176 558 169 q 517 203 526 183 q 508 222 511 213 q 501 240 504 231 q 492 306 494 271 q 487 340 489 322 q 482 374 485 357 z "},"V":{"ha":610,"x_min":42,"x_max":639,"o":"m 629 1126 q 636 1078 633 1103 q 632 1028 639 1053 q 631 1021 632 1025 q 629 1011 629 1017 q 626 963 631 988 q 619 915 622 939 q 617 884 618 900 q 614 853 617 868 q 609 823 611 838 q 604 793 607 808 q 599 771 601 782 q 596 749 596 760 q 586 695 593 721 q 575 642 579 669 q 565 588 569 614 q 553 536 560 563 q 540 485 546 510 q 524 435 533 460 q 519 417 521 426 q 515 397 518 407 q 508 369 513 382 q 497 342 504 356 q 490 324 493 333 q 483 306 486 315 q 482 299 483 303 q 479 292 481 294 q 456 251 468 271 q 429 215 444 232 q 386 178 410 193 q 335 157 363 164 q 301 154 317 153 q 289 156 294 156 q 278 157 283 157 q 217 183 243 157 q 177 228 194 204 q 147 279 160 251 q 137 303 143 292 q 128 329 131 315 q 121 343 125 336 q 100 394 110 368 q 83 447 90 419 q 76 478 79 463 q 68 510 74 494 q 59 557 65 533 q 50 606 53 581 q 46 675 46 639 q 44 698 46 686 q 42 721 43 710 l 42 822 l 42 840 l 42 943 q 42 957 42 950 q 43 971 42 964 q 44 981 43 976 q 46 993 44 986 q 55 1013 49 1004 q 72 1028 61 1022 q 139 1033 104 1043 q 163 1017 154 1029 q 172 989 172 1004 q 173 946 172 967 q 169 903 174 925 q 169 888 168 896 q 169 874 169 881 q 170 844 169 858 q 172 814 171 829 q 171 799 172 807 q 169 783 169 790 q 169 758 169 771 q 169 731 168 744 q 174 686 172 707 q 178 643 176 665 q 181 612 179 628 q 188 581 183 596 q 197 533 193 557 q 206 486 200 510 q 214 458 207 471 q 228 410 224 438 q 239 373 232 390 q 254 338 246 356 q 268 306 264 321 q 281 277 274 290 q 297 251 289 264 q 328 244 308 235 q 363 281 351 254 q 368 293 365 288 q 375 306 371 299 q 392 342 386 324 q 400 381 397 360 q 406 412 403 396 q 415 443 410 428 q 433 503 426 472 q 447 564 440 533 q 455 597 451 581 q 461 629 458 613 q 469 670 465 650 q 476 711 474 690 q 484 748 479 731 q 493 785 489 765 q 494 789 493 788 q 494 793 494 790 q 504 867 497 831 q 511 940 511 903 q 515 992 511 967 q 519 1044 519 1018 q 521 1056 519 1053 q 524 1089 525 1074 q 547 1140 522 1119 q 580 1153 560 1151 q 614 1149 600 1156 q 629 1126 628 1138 z "},"W":{"ha":1111,"x_min":40,"x_max":1069,"o":"m 778 0 q 731 -6 754 -8 q 686 4 708 -3 q 667 10 675 7 q 608 39 635 18 q 565 85 585 57 q 540 125 550 104 q 525 169 531 146 q 514 215 519 193 q 503 260 508 236 q 494 315 497 286 q 492 345 493 331 q 490 375 492 360 q 490 403 490 389 q 489 432 489 417 q 489 451 490 442 q 485 469 488 460 q 481 476 483 471 q 464 449 467 468 q 440 381 458 417 q 435 369 436 375 q 426 349 432 358 q 417 328 421 339 q 400 295 410 311 q 382 264 390 279 q 322 197 358 224 q 303 184 313 190 q 282 171 293 178 q 250 161 268 163 q 235 160 243 161 q 221 157 228 158 q 172 161 197 151 q 111 219 129 178 q 91 260 100 239 q 71 301 82 281 q 55 351 60 325 q 47 403 50 376 q 45 459 46 431 q 43 517 44 488 q 43 536 40 525 q 44 558 43 547 q 46 579 46 568 q 47 610 46 594 q 49 640 47 625 q 49 656 50 647 q 49 671 49 664 q 49 690 49 681 q 51 708 49 699 q 56 732 54 719 q 56 757 57 744 q 57 782 56 769 q 61 807 58 794 q 65 830 64 818 q 68 854 65 842 q 72 880 71 867 q 76 907 74 893 q 83 937 79 922 q 92 967 86 951 q 117 1001 99 986 q 158 1017 136 1015 l 163 1017 q 190 1013 178 1019 q 210 994 203 1006 q 219 969 217 983 q 218 944 222 956 q 208 902 211 924 q 203 860 206 881 q 199 826 200 843 q 193 794 199 810 q 190 769 188 782 q 189 750 193 758 q 185 720 186 735 q 183 690 185 706 q 183 665 183 678 q 182 639 183 653 q 178 513 178 576 q 178 483 179 497 q 178 454 178 469 q 180 417 178 435 q 185 379 182 399 q 190 360 188 369 q 196 340 192 350 q 199 331 199 336 q 200 322 199 326 q 206 298 203 310 q 214 275 210 286 q 235 246 222 258 q 253 242 242 239 q 297 276 282 250 q 309 297 304 288 q 319 318 314 307 q 324 328 322 324 q 329 338 326 333 q 350 378 342 357 q 367 419 358 399 q 372 434 369 426 q 378 449 375 442 q 387 480 383 464 q 394 511 390 496 q 399 529 397 521 q 404 546 401 538 q 421 599 417 571 q 433 651 425 622 q 440 682 438 667 q 443 713 443 697 q 447 735 443 724 q 456 761 451 749 q 463 788 460 774 q 471 822 468 806 q 478 857 474 839 q 483 885 481 874 q 484 888 483 886 q 485 890 485 889 q 493 942 486 917 q 503 993 500 967 q 506 1009 504 1001 q 508 1025 507 1017 q 525 1046 513 1039 q 585 1057 554 1067 q 603 1051 594 1054 q 619 1042 613 1047 q 633 1024 628 1036 q 635 979 640 997 q 629 932 629 956 q 628 885 629 908 q 627 871 628 878 q 625 857 626 864 q 624 842 624 850 q 622 825 624 833 q 621 803 621 814 q 619 781 621 792 q 617 751 618 765 q 615 721 617 736 q 615 697 615 710 q 614 674 614 685 q 613 656 613 664 q 613 638 613 647 q 613 587 613 613 q 614 536 614 561 q 615 524 615 529 q 617 513 615 519 q 617 500 617 506 q 615 489 617 494 q 614 457 613 474 q 617 425 615 440 l 625 325 q 629 293 625 307 q 640 243 635 268 q 653 193 646 218 q 656 183 653 189 q 669 153 663 168 q 679 122 675 138 q 692 96 685 108 q 708 71 700 83 q 736 56 717 60 q 751 58 743 53 q 793 86 775 67 q 872 249 857 153 q 881 283 874 264 q 899 364 892 319 q 908 420 903 392 q 917 478 913 449 q 924 528 919 503 q 928 581 928 554 q 928 601 928 592 q 929 622 929 611 q 931 664 931 643 q 931 706 931 685 q 933 731 932 718 q 933 758 933 744 q 935 806 935 782 q 935 854 935 831 q 933 897 933 875 q 931 939 932 918 q 929 953 931 949 q 923 987 925 969 q 919 1021 921 1004 q 919 1025 919 1024 q 918 1029 918 1026 q 911 1063 913 1046 q 911 1096 910 1079 q 911 1112 911 1104 q 910 1128 911 1119 q 922 1149 910 1143 q 951 1160 936 1156 q 981 1161 965 1164 q 989 1160 983 1160 q 1032 1133 1017 1161 q 1038 1119 1035 1126 q 1042 1104 1040 1113 q 1043 1090 1043 1100 q 1045 1037 1042 1063 q 1053 983 1049 1011 q 1058 943 1056 964 q 1063 903 1060 922 l 1063 893 q 1063 843 1061 868 q 1067 794 1064 818 q 1067 778 1067 786 q 1069 763 1068 769 l 1069 743 q 1068 675 1068 708 q 1065 608 1068 642 q 1059 559 1063 583 q 1051 511 1056 535 q 1047 490 1049 500 q 1046 468 1046 479 q 1042 421 1046 444 q 1032 374 1038 397 q 1030 358 1031 367 q 1026 343 1029 350 q 1019 304 1022 324 q 1010 265 1015 285 q 1000 242 1006 254 q 990 218 994 229 q 983 201 985 207 q 972 162 981 181 q 951 125 963 143 q 928 95 940 110 q 903 65 915 81 q 890 51 896 58 q 879 38 885 44 q 847 19 865 21 q 811 8 832 18 q 800 5 806 6 q 789 3 794 4 q 783 1 786 1 q 778 0 781 1 z "},"X":{"ha":588,"x_min":-131,"x_max":675,"o":"m 667 53 q 640 48 653 50 q 617 44 628 46 q 600 46 604 44 q 578 49 589 47 q 556 53 567 50 q 524 64 539 57 q 496 82 508 71 q 481 96 486 92 q 463 113 469 103 q 450 133 456 122 l 442 146 q 425 166 431 154 q 414 190 419 178 q 406 203 410 197 q 397 215 403 210 q 387 228 390 221 q 381 242 383 235 q 369 270 376 257 q 356 297 363 283 q 343 329 347 311 q 338 344 340 336 q 331 358 336 351 q 315 396 319 375 q 300 421 311 413 q 285 424 293 426 q 269 410 274 419 q 255 383 263 396 q 240 354 247 369 q 231 339 235 343 q 224 331 228 335 q 218 322 221 326 q 201 291 211 306 q 181 263 192 276 q 170 247 175 256 q 160 231 165 239 q 135 196 149 213 q 108 163 122 179 q 76 131 93 146 q 42 101 60 115 q 9 82 26 89 q -28 71 -8 75 l -57 67 q -86 67 -72 64 q -115 74 -100 69 q -124 77 -119 75 q -129 85 -128 79 q -119 101 -131 94 q -110 108 -115 104 q -100 114 -106 111 q -72 130 -85 121 q -47 149 -60 139 q -36 158 -40 153 q -28 168 -32 163 q 14 211 -10 192 q 53 263 40 232 q 72 299 61 279 q 83 319 79 310 q 93 340 88 329 q 108 365 100 353 q 122 392 115 378 q 130 404 126 399 q 138 417 133 410 q 139 419 138 418 q 158 456 150 436 q 174 494 167 475 q 183 509 178 501 q 192 525 188 517 q 203 543 197 533 q 210 562 207 553 q 218 581 214 571 q 219 619 224 599 q 206 667 215 646 q 201 680 203 674 q 196 693 199 686 q 176 735 190 711 q 170 749 174 742 q 164 764 167 757 q 146 799 157 783 q 140 810 143 804 q 132 822 136 815 q 110 863 121 843 q 88 904 99 883 q 58 947 75 928 q 21 985 40 965 l 13 993 q 8 1015 6 1003 q 24 1033 11 1028 q 50 1040 40 1039 q 76 1036 60 1042 q 101 1028 89 1032 q 126 1018 114 1024 q 163 990 147 1008 q 176 976 169 983 q 190 960 183 968 l 194 956 q 213 928 204 942 q 231 901 222 915 q 241 884 236 893 q 251 865 246 875 q 257 850 254 861 q 274 814 264 831 q 293 781 283 797 q 308 776 300 771 q 324 786 315 778 q 349 835 338 808 q 361 861 353 851 q 372 876 368 868 q 381 894 376 885 q 387 907 383 901 q 396 919 390 913 q 404 932 401 924 q 426 972 417 953 q 432 981 429 978 q 443 995 439 988 q 451 1010 447 1003 q 470 1042 460 1026 q 492 1072 481 1057 q 511 1093 500 1083 q 538 1107 522 1103 q 604 1092 574 1113 q 610 1057 624 1078 q 565 985 588 1018 l 557 968 q 549 950 553 960 q 538 932 544 940 q 519 896 524 913 q 503 861 514 879 q 467 804 489 832 q 458 788 461 797 q 450 771 454 779 q 441 754 446 763 q 432 738 436 746 q 411 697 419 719 q 404 679 408 683 q 392 658 396 669 q 383 636 388 647 q 377 603 376 619 q 382 569 378 586 q 390 538 385 554 q 400 507 394 522 q 403 501 401 504 q 406 496 404 499 q 426 447 421 472 q 451 383 433 413 q 459 367 456 376 q 465 350 463 358 q 472 333 468 342 q 479 318 475 325 q 492 289 486 303 q 506 260 499 275 q 515 238 511 249 q 526 215 519 226 q 544 188 535 200 q 561 160 554 175 l 561 158 q 588 128 575 143 q 614 97 600 113 q 631 85 619 89 q 647 80 639 82 q 663 75 654 78 q 667 74 665 74 q 669 72 668 74 q 675 63 675 69 q 671 54 675 57 q 669 53 669 54 q 667 53 668 53 z "},"Y":{"ha":646,"x_min":-18,"x_max":596,"o":"m 324 38 q 277 33 300 36 q 231 32 254 29 l 185 40 q 174 43 179 43 q 153 44 163 40 q 133 50 144 47 q 122 53 128 53 q 110 56 117 54 q 67 73 88 63 q 32 100 47 83 q 21 113 25 106 q 14 128 17 121 q 3 151 7 139 q -6 174 -1 163 q -10 185 -7 176 q -15 222 -11 204 q -17 260 -18 240 q -15 292 -15 276 q -12 325 -15 308 q 3 356 -10 344 q 33 374 15 368 q 71 376 54 378 q 105 359 90 376 q 117 322 119 342 q 115 286 114 304 q 115 249 115 268 q 119 228 115 238 l 124 199 q 128 181 124 189 q 138 164 132 172 q 151 145 144 154 q 164 126 157 136 q 178 111 171 118 q 194 97 186 104 q 200 94 200 94 q 231 85 215 89 q 263 85 246 82 q 288 92 275 88 q 313 103 301 96 q 326 114 319 108 q 336 126 332 119 l 346 136 q 355 148 350 143 q 364 160 360 153 q 390 207 378 183 q 410 256 401 231 q 416 276 413 267 q 422 296 419 285 q 426 310 425 303 q 429 325 428 318 q 431 331 431 328 q 432 336 431 333 q 442 383 439 360 q 447 431 444 407 q 449 444 449 438 q 451 457 450 450 q 457 499 456 478 q 461 542 458 521 q 462 565 461 553 q 464 588 463 576 q 465 600 464 594 q 464 611 465 606 q 463 644 461 628 q 467 678 464 661 q 468 690 468 685 q 468 701 468 696 q 463 708 468 706 q 457 704 458 708 q 448 688 453 696 q 440 669 443 679 q 429 641 435 654 q 417 614 424 628 q 410 599 414 607 q 403 583 407 590 q 392 565 400 576 q 383 551 389 560 q 368 527 376 538 q 349 506 360 517 q 312 470 331 486 q 271 439 293 454 q 225 425 247 425 q 200 426 213 426 q 174 429 188 426 q 142 443 156 432 q 117 467 129 454 q 92 492 104 479 q 79 519 79 504 q 74 551 78 535 q 67 582 69 567 q 61 640 61 608 q 60 661 61 651 q 60 682 60 671 q 60 702 60 693 q 61 722 61 711 q 60 741 61 732 q 60 760 60 750 q 61 779 60 769 q 64 799 63 789 q 66 811 65 806 q 67 822 67 817 q 69 885 67 854 q 76 947 72 915 q 78 965 78 957 q 79 983 78 974 q 92 1016 82 1003 q 122 1033 101 1029 q 135 1036 129 1035 q 147 1040 140 1038 q 200 1019 179 1044 q 213 968 218 997 q 210 957 210 963 q 210 944 210 951 q 209 919 210 932 q 207 894 208 907 q 204 847 206 871 q 200 799 203 822 q 197 772 197 785 q 194 744 197 758 q 192 728 193 736 q 192 711 192 719 q 192 675 193 693 q 199 639 192 657 l 199 632 q 200 597 197 614 q 206 564 203 581 q 210 546 206 554 q 214 532 213 538 q 230 534 224 531 q 242 540 236 538 q 276 572 263 554 q 301 611 290 590 q 330 667 317 639 q 357 724 343 696 q 368 753 364 739 q 376 783 372 768 q 384 808 381 796 q 390 833 388 821 q 396 867 393 850 q 401 901 399 885 q 406 918 404 910 q 408 935 407 926 q 413 981 413 958 q 414 1026 414 1003 q 413 1035 414 1031 q 413 1046 413 1040 q 422 1071 413 1058 q 489 1096 447 1099 q 496 1094 494 1096 q 517 1083 507 1089 q 533 1068 526 1078 q 543 1050 542 1057 q 553 1011 549 1031 q 561 972 558 992 q 569 926 564 949 q 576 881 574 904 q 581 844 579 861 q 583 807 583 826 q 585 792 585 800 q 588 776 586 783 q 591 747 590 761 q 592 718 592 733 q 592 699 592 708 q 593 678 593 689 q 593 630 593 654 q 594 582 593 606 q 595 564 594 572 q 596 546 596 556 q 592 485 596 515 q 585 440 588 463 q 579 394 582 418 l 575 378 q 565 341 569 358 q 556 304 561 324 q 549 283 553 293 q 542 263 544 274 q 528 228 536 244 q 513 196 519 213 q 488 149 503 171 q 456 108 474 128 q 447 100 451 104 q 440 90 443 96 q 406 60 425 71 q 364 43 388 50 q 344 39 354 40 q 324 38 335 38 z "},"Z":{"ha":667,"x_min":-128,"x_max":726,"o":"m 719 947 q 724 940 722 942 q 722 928 726 933 q 710 924 717 922 q 698 926 703 925 q 686 929 693 928 q 650 934 668 935 q 614 931 632 933 q 603 924 607 931 q 594 913 599 918 q 586 904 590 908 q 580 895 583 900 q 572 888 576 890 q 554 861 560 875 q 535 825 546 844 q 524 806 528 815 q 516 790 519 799 q 508 774 513 782 q 494 747 501 760 q 481 721 488 735 q 477 716 478 718 q 474 711 476 714 q 460 689 467 700 q 446 665 453 678 q 440 655 443 660 q 433 646 436 650 q 426 633 428 638 q 413 608 421 619 q 399 586 406 597 q 389 571 393 579 q 379 556 385 563 q 357 521 368 536 q 335 490 346 506 q 318 456 325 474 q 316 453 317 454 q 314 450 315 451 q 300 431 306 440 q 289 410 294 421 q 272 382 281 394 q 253 357 263 369 q 222 314 238 335 q 190 272 206 293 q 176 250 183 261 q 161 228 168 239 q 157 218 158 225 q 177 217 168 217 q 196 219 186 218 q 210 220 203 219 q 225 221 218 221 q 275 222 250 222 q 324 222 300 222 q 334 223 329 222 q 344 224 339 224 q 392 227 368 226 q 439 222 415 228 q 478 218 457 218 l 513 218 q 568 213 543 221 q 585 210 576 210 q 600 208 593 210 q 617 200 614 208 q 610 183 621 192 q 590 163 599 174 q 572 142 582 153 q 563 133 568 138 q 556 124 558 129 q 541 113 549 115 q 524 107 533 110 q 498 106 511 106 q 471 110 485 106 q 456 111 465 111 q 447 113 451 113 q 438 114 442 113 q 396 119 419 119 q 368 122 382 121 q 339 124 354 122 l 279 124 q 258 123 268 124 q 236 124 247 122 q 176 123 206 125 q 115 118 146 121 q 85 115 100 115 q 56 111 71 114 l 1 103 q -10 101 -6 101 q -22 99 -15 100 q -36 96 -28 99 q -69 85 -53 90 q -104 75 -86 81 q -110 74 -107 75 q -115 75 -112 74 q -125 82 -122 76 q -124 93 -128 88 q -112 106 -117 100 q -100 119 -107 113 q -93 128 -97 124 q -86 136 -89 132 q -62 160 -75 150 q -33 178 -49 171 q -23 184 -28 181 q -14 192 -18 188 q 12 222 -1 207 q 36 253 25 236 q 50 268 43 261 q 63 283 57 275 q 72 301 68 292 q 82 317 75 310 q 89 326 86 321 q 103 347 96 338 q 119 367 111 357 q 133 385 126 375 q 146 406 139 394 q 164 434 154 421 q 183 461 174 447 q 190 474 186 468 q 197 486 194 479 q 206 501 201 493 q 214 517 210 510 q 228 538 221 528 q 239 560 235 549 l 243 564 q 265 599 256 581 q 286 635 275 617 q 306 666 296 650 q 325 697 315 682 q 340 719 332 708 q 351 743 347 731 q 356 753 351 749 q 380 791 369 771 q 406 829 390 811 q 425 860 417 844 q 443 892 433 876 q 447 922 450 903 q 438 933 447 931 q 407 936 421 938 q 394 935 400 935 q 383 935 389 935 q 362 933 372 933 q 340 931 351 932 q 305 926 322 928 q 271 919 288 924 q 256 917 264 917 q 239 918 247 918 q 165 906 200 918 q 125 897 143 899 q 108 896 117 897 q 92 892 100 894 q 46 904 64 885 q 22 939 33 918 q 13 953 18 946 q 1 965 8 960 q -3 968 0 965 q 1 993 -15 983 q 7 995 4 994 q 13 997 10 996 q 51 1006 32 1001 q 90 1011 71 1010 q 131 1019 111 1014 q 171 1026 150 1024 q 194 1028 182 1028 q 219 1032 207 1029 q 255 1035 238 1035 q 290 1036 272 1036 q 331 1038 311 1038 q 372 1040 351 1039 q 422 1042 397 1043 q 471 1039 446 1042 q 500 1037 486 1036 q 529 1036 514 1038 l 558 1036 q 600 1032 579 1038 q 614 1028 607 1029 q 629 1028 621 1028 q 642 1026 638 1028 q 672 1006 660 1022 q 696 976 683 990 q 719 947 708 963 z "},"b":{"ha":547,"x_min":-11,"x_max":581,"o":"m 569 440 q 578 424 581 435 q 576 420 576 421 q 575 417 576 419 q 542 365 558 390 q 504 317 526 339 q 488 298 496 307 q 472 279 481 289 q 464 271 468 275 q 456 264 460 267 q 382 211 419 240 q 367 198 374 206 q 356 182 361 190 q 322 138 340 158 q 285 97 304 117 q 253 78 272 85 q 224 68 238 72 q 196 60 211 64 q 168 56 182 56 q 140 58 154 56 q 135 60 136 58 q 117 106 100 72 q 135 126 124 119 q 158 136 146 132 q 196 149 178 143 q 232 161 214 154 q 274 196 258 169 q 280 209 276 203 q 286 222 283 215 q 299 267 293 244 q 308 313 306 289 q 312 351 311 332 q 315 390 313 371 q 315 399 315 394 q 314 410 314 404 q 310 433 311 421 q 306 457 308 446 q 299 477 303 468 q 289 497 294 486 q 265 510 282 513 q 244 505 254 508 q 226 492 235 501 q 200 454 213 472 q 178 414 188 436 q 158 361 167 388 q 139 308 150 335 q 133 265 132 285 q 132 250 133 254 q 125 217 125 232 q 111 193 122 201 q 84 177 99 183 q 53 172 69 171 q 22 183 36 172 q 0 201 10 192 q -6 213 -3 204 q -10 243 -10 228 q -8 274 -11 258 q -6 303 -6 289 q -6 333 -6 318 q -6 342 -6 338 q -6 351 -7 347 q -1 397 -3 375 q 4 442 1 418 q 7 469 6 456 q 10 497 8 483 q 17 553 13 525 q 28 611 22 582 q 33 639 31 625 q 39 667 36 653 q 40 674 40 671 q 42 681 40 678 q 54 716 49 699 q 65 753 60 733 q 72 774 68 764 q 78 796 75 785 q 87 816 82 807 q 96 836 92 825 q 109 861 103 849 q 122 888 115 874 q 149 926 133 908 q 183 958 164 944 l 188 963 q 234 992 208 983 q 288 1007 260 1001 q 320 1009 304 1010 q 353 1006 336 1008 q 380 994 368 1003 q 396 969 392 986 q 399 950 400 960 q 392 912 396 931 q 383 874 389 893 q 381 867 382 869 q 376 861 379 864 q 370 847 374 854 q 364 833 367 840 q 357 822 361 828 q 350 810 353 817 q 337 790 343 800 q 324 769 331 781 q 299 733 313 750 q 271 699 286 715 q 266 694 268 696 q 263 690 264 693 q 234 653 247 671 q 207 618 221 636 q 174 569 190 593 q 142 518 157 544 q 137 507 139 513 q 133 493 135 501 q 138 496 136 496 q 142 497 140 496 q 144 500 142 497 q 190 533 164 524 q 244 546 217 542 q 346 524 297 551 q 394 450 389 499 q 398 431 397 440 q 401 413 399 422 q 404 385 404 399 q 401 358 404 372 q 401 353 401 356 q 400 349 400 351 q 400 320 403 333 q 394 293 397 307 q 391 276 393 285 q 386 261 389 268 q 382 246 383 253 q 401 255 393 250 q 415 265 408 260 q 435 283 426 275 q 456 301 444 292 q 481 332 471 317 q 488 342 483 338 q 497 351 493 347 q 542 417 525 382 q 547 427 544 422 q 553 438 550 432 q 569 440 558 446 m 256 897 q 244 881 249 889 q 235 864 239 874 q 231 854 233 858 q 226 846 229 850 q 204 799 213 825 q 194 767 199 783 q 186 735 190 750 q 181 714 183 724 q 175 694 178 704 l 167 661 q 158 625 160 643 q 153 588 156 607 q 154 585 153 588 q 160 589 157 586 q 172 609 167 600 q 183 629 176 618 q 194 645 189 638 q 207 660 200 653 q 216 673 211 667 q 225 686 221 679 l 250 719 q 269 743 261 731 q 288 768 278 756 q 296 781 292 775 q 306 794 300 788 q 316 809 311 801 q 325 824 321 817 q 347 867 339 843 q 352 881 350 874 q 357 894 354 888 q 367 961 369 924 q 358 976 365 971 q 340 978 350 981 q 326 971 333 975 q 296 945 311 957 q 269 914 281 933 q 263 905 267 908 q 256 897 260 901 m 143 85 q 229 124 193 81 l 224 124 q 222 125 222 124 l 160 108 q 153 107 157 108 q 147 104 150 106 q 141 98 142 101 q 143 85 140 94 z "},",":{"ha":232,"x_min":25,"x_max":169,"o":"m 149 254 q 163 242 161 244 q 168 224 165 239 q 163 174 169 194 q 147 137 156 151 q 114 117 138 122 q 100 113 104 114 q 85 110 96 113 q 61 110 69 107 q 38 117 53 113 q 28 124 32 119 q 26 130 25 126 q 29 135 26 133 q 39 139 33 139 q 58 157 51 142 q 63 164 61 163 q 71 201 75 181 q 69 215 69 208 q 69 229 69 222 q 71 244 69 240 q 75 251 72 249 q 79 254 76 253 q 83 257 82 256 q 85 258 83 258 q 95 262 92 261 q 107 263 99 263 l 115 263 q 134 261 126 263 q 149 254 142 260 z "},".":{"ha":210,"x_min":42,"x_max":169,"o":"m 154 242 q 167 231 164 239 q 164 215 169 224 q 161 213 161 213 q 142 185 149 204 q 114 168 132 167 l 110 168 q 81 172 94 171 q 53 176 68 174 q 42 188 43 179 q 55 213 49 200 q 68 236 61 225 q 96 251 75 251 q 125 247 111 250 q 154 242 139 244 z "},"A":{"ha":561,"x_min":-29,"x_max":526,"o":"m -18 446 q -22 463 -29 450 q -19 468 -22 465 q 5 498 -7 483 q 31 528 17 513 q 47 537 42 539 q 57 533 51 535 q 67 531 64 532 q 76 526 69 529 q 110 544 101 521 q 119 578 115 561 q 129 611 124 594 q 145 659 139 635 q 157 708 151 683 q 158 714 157 713 l 179 772 q 206 846 190 810 q 235 918 222 882 q 243 939 238 929 q 253 960 249 949 q 259 974 256 967 q 265 988 263 981 q 267 994 267 990 q 269 1000 267 997 q 281 1024 276 1013 q 289 1050 286 1036 q 304 1065 292 1065 q 318 1061 314 1068 q 321 1058 321 1061 q 383 1040 346 1036 q 422 1038 401 1042 q 443 1019 439 1035 q 449 997 446 1008 q 454 974 451 985 q 456 960 456 967 q 457 947 456 954 q 457 924 457 936 q 458 900 457 911 q 458 865 458 882 q 460 829 458 847 q 460 806 460 818 q 463 783 461 794 q 463 758 463 771 q 464 732 464 744 q 464 604 463 668 q 467 575 465 589 q 471 546 468 561 q 482 539 474 535 q 489 540 485 539 q 496 543 493 542 q 518 543 506 547 q 517 529 519 535 q 510 518 514 524 q 498 503 503 511 q 486 489 493 496 q 472 451 469 475 q 476 421 475 436 q 479 390 478 406 q 481 376 481 383 q 482 361 482 368 q 486 326 485 343 q 494 294 488 310 q 499 277 497 286 q 501 260 500 268 q 505 231 501 244 q 514 204 508 218 l 522 183 q 510 163 526 167 q 488 157 499 160 q 465 156 476 154 l 419 156 q 390 175 399 156 q 388 183 389 179 q 385 192 386 188 q 376 231 381 211 q 367 269 372 250 q 357 322 360 296 q 350 375 354 349 q 348 388 347 382 q 347 401 349 394 l 347 417 q 333 428 344 428 q 322 426 326 428 q 276 421 299 424 q 229 415 253 418 q 203 407 214 413 q 188 390 192 400 q 182 372 185 381 q 178 356 179 364 q 169 313 175 333 q 160 272 164 293 q 150 236 154 254 q 142 200 146 218 q 133 167 138 183 q 128 135 129 151 l 128 133 q 101 122 121 110 q 67 149 83 135 q 38 179 51 163 q 31 213 25 193 q 35 236 33 224 q 39 260 36 249 q 40 263 39 261 q 40 265 40 264 q 57 318 51 292 q 69 372 63 344 q 74 406 74 389 q 63 421 75 417 q 55 422 60 421 q 47 425 50 424 q 36 427 39 426 q 32 428 33 428 q 28 430 31 429 q 17 432 25 431 q -1 439 7 435 q -18 446 -8 443 m 238 564 q 233 549 235 557 q 229 535 232 542 q 228 524 228 531 q 240 508 228 510 q 278 508 260 507 q 315 510 296 508 q 328 513 319 510 q 340 528 340 517 l 340 553 q 338 589 339 571 q 339 625 336 607 q 338 643 339 638 q 337 667 338 656 q 336 690 336 679 q 335 720 335 706 q 333 750 336 735 q 333 772 331 761 q 335 802 336 788 q 331 833 333 817 q 322 820 324 826 q 318 807 321 814 q 307 773 313 790 q 294 740 301 756 q 284 714 289 726 q 276 688 279 701 q 274 678 275 682 q 271 669 272 674 q 258 640 264 654 q 250 608 253 625 q 238 564 246 585 z "},"d":{"ha":642,"x_min":-4,"x_max":669,"o":"m 668 433 q 668 417 669 425 q 651 378 667 397 q 636 349 643 368 q 611 304 628 322 q 601 287 604 296 q 593 268 597 278 q 587 257 590 263 q 581 244 583 251 q 572 228 576 236 q 563 214 567 221 q 554 203 558 208 q 547 193 550 199 q 539 184 543 189 q 531 175 535 179 q 523 168 526 172 q 514 161 519 164 q 503 153 508 157 q 490 144 497 149 q 453 132 474 132 q 446 131 450 131 q 439 129 442 132 q 422 126 431 126 q 404 128 413 126 q 377 133 390 131 q 353 142 364 135 q 322 161 336 150 q 301 192 308 172 q 299 199 300 196 q 294 207 297 203 q 292 213 293 210 q 289 219 290 217 q 284 242 286 231 q 282 264 282 253 q 283 298 282 281 q 286 332 283 315 l 286 342 l 283 342 l 275 321 q 267 302 271 311 q 258 285 263 293 q 221 246 243 258 q 171 231 199 233 q 138 230 154 229 q 107 235 122 231 q 72 249 89 240 q 43 272 56 257 q 22 304 29 288 q 8 340 14 321 q 3 456 -4 394 q 8 491 6 474 q 18 526 11 508 q 33 560 25 544 q 53 590 42 575 q 63 606 58 597 q 74 621 68 614 q 78 626 76 624 q 82 631 79 628 q 122 658 101 646 q 165 676 142 669 q 219 687 193 685 q 274 688 246 689 l 307 688 q 322 691 318 688 q 328 706 325 694 q 331 722 331 717 q 344 789 332 757 q 358 831 353 810 q 369 874 364 853 q 378 907 374 890 q 390 939 383 924 q 399 960 396 950 q 408 982 403 971 q 426 1019 417 1001 q 447 1053 436 1036 q 458 1067 450 1058 q 474 1083 467 1075 q 489 1099 482 1090 q 513 1117 501 1111 q 516 1117 515 1117 q 518 1118 517 1118 q 551 1131 533 1129 q 588 1132 568 1133 q 594 1131 590 1132 q 601 1128 599 1129 q 618 1121 613 1122 q 635 1107 626 1117 q 636 1103 636 1106 q 658 1059 656 1083 q 656 1010 660 1035 q 649 977 653 993 q 643 946 646 961 q 633 924 639 932 q 604 865 617 896 q 595 844 600 854 q 582 824 590 833 q 581 822 582 822 q 581 819 581 821 q 562 783 571 800 q 543 746 553 765 l 514 696 q 506 676 507 685 q 479 622 496 650 q 463 594 471 608 q 447 565 456 581 q 438 529 440 550 q 436 517 438 522 q 433 504 435 511 q 431 491 432 497 q 428 478 429 485 q 422 451 425 464 q 417 426 419 439 q 414 407 414 417 q 414 388 414 397 q 411 324 415 358 q 409 308 408 317 q 410 292 410 300 q 414 264 413 278 q 417 235 415 250 q 425 203 418 218 q 442 176 432 189 q 460 165 449 167 q 482 171 471 163 q 511 199 497 182 q 543 244 529 221 q 571 290 557 267 q 575 297 574 293 q 579 306 576 301 q 594 333 585 319 q 603 349 599 342 q 611 365 607 357 q 628 397 621 381 q 646 429 635 414 q 649 433 647 432 q 651 438 650 435 q 661 440 656 442 q 668 433 667 439 m 304 579 q 274 642 311 622 q 235 642 253 651 q 203 616 217 631 q 178 585 189 601 q 168 570 172 578 q 160 556 164 563 q 153 538 154 544 q 145 512 149 525 q 139 486 142 499 l 139 478 q 135 465 136 471 q 133 453 135 460 q 129 414 129 433 q 130 401 129 407 q 131 392 131 394 q 131 359 128 374 q 138 329 135 344 q 152 299 142 311 q 176 275 163 286 q 201 272 189 267 q 219 285 214 276 q 226 292 222 289 q 233 301 231 296 q 249 324 242 313 q 258 350 256 335 q 274 390 264 368 q 282 417 279 401 q 287 446 285 432 q 293 475 289 460 q 297 492 296 483 q 299 508 299 500 q 300 544 299 526 q 304 579 301 561 m 489 835 q 485 824 486 829 q 482 814 485 819 q 472 776 475 794 q 465 739 468 758 q 460 706 463 722 q 454 674 458 690 q 451 660 451 667 q 449 647 450 654 q 451 647 450 647 q 453 646 451 646 q 465 665 458 656 q 475 685 471 674 q 487 712 481 699 q 501 738 493 725 q 515 760 508 749 q 529 783 522 772 q 542 803 536 793 q 551 824 547 813 q 565 854 558 839 q 581 883 571 869 q 590 907 588 893 q 600 939 594 924 q 614 969 606 954 q 625 1056 635 1013 q 611 1078 621 1072 q 592 1075 600 1086 q 582 1060 586 1064 q 565 1033 571 1046 q 551 1001 558 1017 q 535 971 544 986 q 527 954 531 963 q 519 939 524 946 q 504 890 508 915 q 489 840 500 864 l 489 835 z "},"a":{"ha":524,"x_min":-17,"x_max":560,"o":"m 551 457 q 560 446 560 453 q 560 437 560 442 q 557 428 560 432 q 531 381 543 401 q 512 349 521 365 q 492 318 503 333 q 484 309 489 311 q 475 300 479 307 q 466 285 467 289 q 456 272 465 282 q 419 231 440 251 q 377 208 401 213 q 329 199 353 203 q 294 204 314 197 q 269 222 279 208 q 258 251 258 236 q 258 284 260 268 q 260 315 257 300 q 262 326 261 321 q 264 339 263 332 q 259 340 261 343 q 256 335 257 336 q 251 326 254 332 q 246 317 249 319 q 242 308 243 310 q 240 303 240 306 q 236 297 239 301 q 229 283 233 293 q 211 263 225 275 q 190 243 197 250 q 160 222 175 224 q 121 217 146 219 q 98 213 107 214 q 74 213 89 211 q 51 217 63 213 q 28 228 39 221 q 10 246 17 235 q 0 269 4 257 q -12 310 -7 288 q -14 353 -17 333 q -10 385 -11 368 q -7 417 -10 401 q 1 433 -4 428 q 11 450 6 439 q 20 466 17 465 q 31 482 24 467 q 33 489 31 483 q 62 518 47 508 q 92 546 76 528 q 103 556 99 553 q 127 575 114 567 q 156 592 140 583 q 162 594 158 593 q 168 596 165 594 q 193 601 181 599 q 218 607 206 604 q 254 611 236 610 q 292 613 272 613 q 317 610 304 611 q 342 603 331 608 q 383 592 361 594 q 425 588 404 590 l 429 588 q 446 580 442 588 q 444 561 450 572 q 443 560 444 560 q 427 530 432 546 q 418 497 422 514 q 417 492 418 494 q 417 488 417 490 q 408 463 413 475 q 400 436 404 450 q 397 421 397 429 q 394 404 396 413 q 393 397 393 400 q 392 390 393 393 q 386 353 389 371 q 381 318 383 336 q 379 288 378 303 q 383 257 381 272 q 399 250 386 242 l 403 254 q 427 277 415 265 q 447 304 439 289 q 464 327 458 322 q 481 350 469 332 q 509 395 496 372 q 533 443 522 418 q 539 453 535 449 q 551 457 544 458 m 289 492 q 289 525 294 511 q 285 538 286 532 q 281 551 283 544 q 278 561 281 553 q 257 568 271 575 q 253 565 254 567 q 249 563 251 564 q 235 553 242 558 q 222 543 229 549 q 206 529 214 536 q 190 513 197 522 q 169 485 179 493 q 149 458 160 478 q 143 447 146 453 q 139 436 140 442 q 133 426 136 428 q 128 418 131 425 q 122 397 125 413 q 115 378 118 382 q 107 324 104 349 q 108 296 110 299 q 115 274 108 281 q 128 254 122 268 q 147 247 132 239 q 167 258 154 250 q 186 271 181 265 q 200 288 194 279 q 213 306 206 296 q 221 320 215 310 q 229 336 226 331 q 233 347 232 344 q 235 349 235 349 q 236 353 235 350 q 240 364 238 356 q 243 371 242 367 q 246 378 244 375 q 272 433 263 411 q 289 492 281 456 z "}}}
